<svg id="Capa_1" enable-background="new 0 0 511.98 511.98" height="20" viewBox="0 0 511.98 511.98" width="20" xmlns="http://www.w3.org/2000/svg">
  <g>
    <path d="m503.28 469.37h-494.58c-4.797 0-8.7 3.903-8.7 8.701v25.209c0 4.797 3.903 8.701 8.7 8.701h494.58c4.797 0 8.7-3.903 8.7-8.701v-25.21c0-4.797-3.904-8.7-8.7-8.7zm-6.3 27.61h-481.98v-12.61h481.98z" 
    fill="#ffffff"
    />
    <path d="m503.28 414.15h-377.088c-4.143 0-7.5 3.358-7.5 7.5s3.357 7.5 7.5 7.5h370.788v12.61h-481.98v-12.61h75.33c4.143 0 7.5-3.358 7.5-7.5s-3.357-7.5-7.5-7.5h-81.63c-4.797 0-8.7 3.903-8.7 8.701v25.208c0 4.797 3.903 8.701 8.7 8.701h494.58c4.797 0 8.7-3.903 8.7-8.701v-25.208c0-4.798-3.904-8.701-8.7-8.701z" 
    fill="#ffffff"
    />
    <path d="m509.081 344.875c-1.842-1.648-4.31-2.437-6.763-2.164l-46.206 5.134c-132.791 14.754-267.453 14.754-400.244 0l-46.206-5.134c-2.458-.273-4.921.516-6.764 2.164-1.841 1.649-2.898 4.013-2.898 6.484v25.194c0 4.441 3.329 8.159 7.74 8.647l46.472 5.164c133.883 14.876 269.67 14.877 403.557 0l46.471-5.164c4.412-.489 7.74-4.207 7.74-8.647v-25.194c0-2.471-1.057-4.835-2.899-6.484zm-12.101 26.04-40.867 4.541c-132.791 14.754-267.453 14.754-400.244 0l-40.869-4.541v-12.518l39.212 4.357c133.89 14.876 269.665 14.877 403.557 0l39.211-4.357zm6.974-13.292c.001 0 .02-.002.021-.002-.006 0-.014.001-.021.002z" 
    fill="#ffffff"
    />
    <path d="m508.02 250.542c-2.479-1.611-5.575-1.855-8.274-.654l-8.551 3.8c-149.476 66.433-320.932 66.434-470.409 0l-8.55-3.8c-2.702-1.201-5.796-.957-8.275.654-2.48 1.611-3.961 4.338-3.961 7.295v24.982c0 3.434 2.027 6.555 5.167 7.951l9.526 4.234c153.344 68.152 329.241 68.156 482.593 0l9.528-4.235c3.138-1.396 5.165-4.516 5.165-7.95v-24.982c.001-2.957-1.48-5.685-3.959-7.295zm-11.04 28.184-5.785 2.571c-149.478 66.434-320.934 66.433-470.409 0l-5.786-2.571v-11.195c153.173 67.972 328.809 67.971 481.979 0v11.195zm8.848-15.128.01-.004h.001c-.004.001-.007.003-.011.004z" 
    fill="#ffffff"
    />
    <path d="m507.535 175.81c-2.743-1.538-6.112-1.475-8.793.165l-12.777 7.808c-25.671 15.688-53.013 28.773-81.266 38.894-3.899 1.396-5.928 5.69-4.531 9.59s5.691 5.928 9.59 4.531c29.215-10.465 57.486-23.996 84.029-40.216l3.192-1.951v10.03l-11.015 6.731c-141.854 86.687-318.097 86.689-459.95 0l-11.014-6.73v-10.03l3.192 1.951c53.663 32.793 112.422 53.828 174.646 62.519 61.402 8.576 122.854 4.696 182.646-11.532 3.997-1.085 6.358-5.206 5.273-9.203-1.085-3.999-5.205-6.358-9.203-5.274-116.552 31.636-242.496 13.66-345.539-49.31l-12.777-7.809c-2.684-1.64-6.052-1.703-8.793-.165-2.742 1.538-4.445 4.446-4.445 7.589v24.796c0 3.007 1.593 5.85 4.163 7.424l14.029 8.574c145.911 89.168 329.549 89.25 475.595 0l14.035-8.577c2.564-1.57 4.157-4.414 4.157-7.42v-24.796c.001-3.144-1.702-6.052-4.444-7.589z"
    fill="#ffffff"
    />
    <path d="m255.99 235.88c49.809 0 90.33-40.522 90.33-90.33v-47.945h18.233c3.057 0 5.905-1.645 7.434-4.292 1.528-2.647 1.528-5.936 0-8.583l-46.441-80.439c-1.522-2.637-4.363-4.291-7.437-4.291-3.059.001-5.906 1.648-7.429 4.292l-46.446 80.445c-1.524 2.647-1.522 5.935.007 8.58 1.528 2.645 4.376 4.288 7.431 4.288h18.234v47.945c0 18.701-15.214 33.915-33.915 33.915s-33.915-15.214-33.915-33.915v-137.045c0-4.69-3.815-8.505-8.506-8.505h-39.404c-4.689 0-8.505 3.815-8.505 8.505v61.778c0 4.142 3.357 7.5 7.5 7.5s7.5-3.358 7.5-7.5v-55.283h26.415v130.55c0 26.972 21.943 48.915 48.915 48.915s48.915-21.943 48.915-48.915v-54.439c0-4.69-3.815-8.506-8.506-8.506h-13.614l35.327-61.188 35.327 61.188h-13.614c-4.689 0-8.505 3.816-8.505 8.506v54.439c0 41.537-33.793 75.33-75.33 75.33s-75.33-33.793-75.33-75.33v-40.267c0-4.142-3.357-7.5-7.5-7.5s-7.5 3.358-7.5 7.5v40.267c-.001 49.808 40.521 90.33 90.329 90.33z" 
    fill="#ffffff"
    />
  </g>
</svg>