<svg id="Capa_1" enable-background="new 0 0 512 512" height="512" viewBox="0 0 512 512" width="512" xmlns="http://www.w3.org/2000/svg">
  <g>
    <path d="m417.628 386.581-66.098-16.522c-16.365-4.091-27.795-18.73-27.795-35.6v-20.544c24.624-18.24 41.755-46.17 45.541-78.3 30.747-2.96 54.868-28.943 54.868-60.453 0-19.074-15.518-34.591-34.591-34.591h-14.048l.788-12.349c.538-8.423.201-16.889-1.002-25.162-.536-3.687-3.696-6.421-7.422-6.421h-7.745v-12.329c0-4.634-3.317-8.552-7.89-9.314l-18.462-3.077 10.88-15.231c2.692-3.772 2.269-8.888-1.008-12.164l-28.045-28.045c-3.28-3.277-8.396-3.699-12.164-1.005l-15.229 10.878-3.076-18.462c-.762-4.572-4.68-7.89-9.314-7.89h-39.659c-4.635 0-8.552 3.318-9.314 7.891l-3.077 18.461-15.227-10.876c-3.772-2.697-8.889-2.274-12.168 1.005l-28.043 28.043c-3.278 3.278-3.701 8.395-1.007 12.166l10.878 15.229-18.461 3.077c-4.572.763-7.89 4.68-7.89 9.314v12.329h-7.731c-3.726 0-6.886 2.734-7.422 6.421-1.203 8.273-1.54 16.738-1.002 25.162l.788 12.349h-14.047c-19.074 0-34.592 15.518-34.592 34.592 0 31.51 24.12 57.492 54.868 60.453 3.787 32.128 20.917 60.057 45.538 78.297v20.548c0 16.87-11.43 31.509-27.795 35.6-.1.025-9.739 3.016-28.59 7.872-11.977 3.072-24.859 6.185-37.102 8.564-.13.025-.26.054-.388.086-18.744 4.686-35.677 15.602-47.681 30.738-2.574 3.246-2.03 7.963 1.215 10.537 3.232 2.563 7.952 2.044 10.537-1.215 10.066-12.691 23.68-21.492 39.38-25.46 9.799-1.91 21.317-4.54 34.285-7.83l118.799 89.099c2.976 2.229 7.163 2.258 10.181-.005l119.536-89.652 33.367 8.341c32.622 8.155 55.405 37.336 55.405 70.962v24.902h-426.793v-24.905c0-5.361.588-10.719 1.748-15.926.9-4.043-1.647-8.051-5.69-8.951-4.043-.897-8.05 1.647-8.951 5.69-1.397 6.275-2.106 12.73-2.106 19.187v30.674c0 5.09 4.141 9.231 9.231 9.231h438.329c5.09 0 9.231-4.141 9.231-9.231v-30.674c0-40.522-27.456-75.687-66.768-85.514zm-28.074-231.011c10.803 0 19.591 8.789 19.591 19.592 0 22.836-16.825 41.817-38.729 45.198 1.435-22.479 3.253-50.987 4.134-64.79zm-28.229-28.304-3.185 49.907-22.708-45.415c-2.101-4.199-6.321-6.807-11.016-6.807h-6.134c-21.08 0-41.533-4.552-60.296-13.312h103.194c.429 5.176.477 10.41.145 15.627zm-194.477-38.249 19.216-3.203c2.968-.498 5.469-2.56 6.526-5.384.547-1.461 1.154-2.924 1.803-4.347 1.253-2.746.944-5.977-.811-8.436l-11.32-15.848 21.385-21.385 15.851 11.322c2.456 1.752 5.687 2.062 8.432.809 1.423-.649 2.886-1.256 4.351-1.804 2.825-1.059 4.888-3.563 5.382-6.535l3.202-19.206h30.244l3.2 19.206c.495 2.973 2.558 5.478 5.386 6.538 1.459.545 2.922 1.152 4.348 1.802 2.745 1.253 5.977.944 8.435-.811l15.848-11.32 21.386 21.385-11.317 15.844c-1.757 2.456-2.068 5.69-.814 8.437.65 1.426 1.257 2.89 1.805 4.353 1.057 2.822 3.559 4.883 6.534 5.382l19.208 3.201v7.622h-40.796c-3.612-23.374-23.843-41.417-48.416-41.417-4.142 0-7.463 3.358-7.463 7.5s3.395 7.5 7.537 7.5c16.126 0 29.658 11.312 33.081 26.417h-66.158c1.216-5.365 3.727-10.392 7.359-14.612 2.703-3.139 2.348-7.875-.791-10.577-3.139-2.703-7.875-2.348-10.577.792-5.984 6.951-9.858 15.42-11.251 24.397h-40.801zm-16.041 22.622h35.72l-4.004 16.018c-3.079 12.313-9.451 23.563-18.428 32.536-5.254 5.253-6.435 9.923-10.249 16.982l-3.184-49.908c-.333-5.218-.284-10.452.145-15.628zm-47.965 63.522c0-10.803 8.789-19.591 19.592-19.591h15.004c3.712 58.178 2.763 43.298 4.134 64.79-21.906-3.382-38.73-22.362-38.73-45.199zm54.281 53.379-1.379-21.621c16.585-32.606 15.828-32.991 18.956-36.118 10.9-10.894 18.638-24.555 22.375-39.507l4.914-19.655h26.081c26.595 18.531 57.733 28.312 90.213 28.312h4.476l33.484 66.968-1.38 21.621c-3.318 52.017-46.747 92.763-98.87 92.763-52.122 0-95.551-40.746-98.87-92.763zm98.87 238.974-105.393-79.044c3.411-.935 6.341-1.757 8.609-2.405l91.696 68.771c2.995 2.247 7.182 2.246 10.182-.004l41.861-31.396c3.313-2.485 3.985-7.186 1.5-10.5-2.484-3.314-7.187-3.985-10.5-1.5l-37.955 28.466-79.906-59.929c16.453-8.847 27.159-26.136 27.159-45.515v-11.136c33.01 17.309 72.462 17.318 105.488.003v11.133c0 19.38 10.708 36.669 27.162 45.516l-13.344 10.008c-3.313 2.485-3.985 7.186-1.5 10.5 2.486 3.313 7.185 3.986 10.5 1.5l21.458-16.093 8.861 2.215z" 
      fill="#ffffff"
    />
    <path d="m245.953 236.396h2.704c13.718 0 24.878-11.16 24.878-24.877v-22.785c0-4.142-3.357-7.5-7.5-7.5-4.142 0-7.5 3.358-7.5 7.5v22.785c0 5.446-4.431 9.877-9.878 9.877h-2.704c-4.142 0-7.5 3.358-7.5 7.5s3.358 7.5 7.5 7.5z" 
      fill="#ffffff"
    />
    <path d="m300.914 274.378c3.205-2.624 3.678-7.349 1.054-10.554-2.623-3.206-7.349-3.678-10.554-1.054-10.427 8.533-22.673 13.043-35.412 13.043s-24.984-4.51-35.412-13.043c-3.206-2.623-7.932-2.15-10.554 1.054-2.623 3.206-2.151 7.931 1.054 10.554 13.139 10.752 28.669 16.435 44.912 16.435s31.774-5.683 44.912-16.435z" 
      fill="#ffffff"
    />
  </g>
</svg>