<?xml version="1.0" encoding="utf-8"?>
<!-- Generator: Adobe Illustrator 24.2.1, SVG Export Plug-In . SVG Version: 6.00 Build 0)  -->
<svg version="1.1" xmlns="http://www.w3.org/2000/svg" xmlns:xlink="http://www.w3.org/1999/xlink" x="0px" y="0px"
	 viewBox="0 0 128 128" style="enable-background:new 0 0 128 128;" xml:space="preserve">
<style type="text/css">
	.st0{fill:#7DEEFF;}
	.st1{fill:#4DC2CE;}
	.st2{fill:#4C4947;}
	.st3{fill:#75716D;}
	.st4{fill:#2B2927;}
	.st5{fill:#FF3968;}
	.st6{fill:#FF85AE;}
	.st7{fill:#CC194C;}
	.st8{fill:#00E77B;}
	.st9{fill:#EBFFFF;}
	.st10{fill:#004573;}
	.st11{fill:#3C8AB5;}
	.st12{fill:#012E47;}
	.st13{fill:#FFC745;}
	.st14{fill:#FF0097;}
	.st15{fill:#FFBD5B;}
	.st16{fill:#FF7B5B;}
	.st17{fill:#FF0077;}
	.st18{fill:#BC005E;}
	.st19{fill:#FFBF45;}
	.st20{fill:#FFF15C;}
	.st21{fill:#915524;}
	.st22{fill:#5B3314;}
	.st23{fill:#B95A00;}
	.st24{fill:#E58D45;}
	.st25{fill:#CE9D78;}
	.st26{fill:#FE4B9E;}
	.st27{fill:#FFF973;}
	.st28{fill:#006ED0;}
	.st29{fill:#43AFFF;}
	.st30{fill:#FF00A2;}
	.st31{fill:#03263A;}
	.st32{fill:#B22D59;}
	.st33{fill:#FFA9CC;}
	.st34{fill:#52B1DB;}
	.st35{fill:#FF00F4;}
	.st36{fill:#A4F3FF;}
	.st37{fill:#73BBD8;}
	.st38{fill:#00FF51;}
	.st39{fill:#06C460;}
	.st40{fill:#EE4C7B;}
	.st41{fill:#FFEB99;}
	.st42{fill:#45E7FF;}
	.st43{fill:#27B9C4;}
	.st44{fill:#B6FDFF;}
	.st45{fill:#E70045;}
	.st46{fill:#AA073D;}
	.st47{opacity:0.5;}
	.st48{fill:#D0FAFF;}
	.st49{fill:#ACDEE2;}
	.st50{fill:#FFFFFF;}
	.st51{fill:#FF9CBD;}
	.st52{fill:#AD003A;}
	.st53{fill:#CFE3E5;}
	.st54{fill:#173EFF;}
	.st55{fill:#4399C9;}
	.st56{fill:#092EB5;}
	.st57{fill:#40C9FF;}
	.st58{fill:#DCFFE2;}
	.st59{display:none;}
	.st60{display:inline;fill:none;stroke:#BBD7FF;stroke-width:2;stroke-linecap:round;stroke-linejoin:round;stroke-miterlimit:10;}
	.st61{fill:#C7FFD2;}
	.st62{fill:#2EE8FF;}
	.st63{fill:#025593;}
	.st64{fill:#2E7EFF;}
	.st65{fill:#FF6E9E;}
	.st66{fill:none;stroke:#FFFFFF;stroke-width:2;stroke-linecap:round;stroke-linejoin:round;stroke-miterlimit:10;}
	.st67{fill:#FF99E0;}
	
		.st68{display:none;fill:none;stroke:#28304F;stroke-width:2;stroke-linecap:round;stroke-linejoin:round;stroke-miterlimit:10;stroke-dasharray:7;}
	.st69{fill:#F8FFFF;}
	.st70{fill:#67C9D3;}
	.st71{fill:#88CFFF;}
	.st72{fill:#1334AA;}
	.st73{fill:#63B2BA;}
	.st74{fill:#033551;}
	.st75{fill:#8C224B;}
	.st76{fill:#FFC7BE;}
	.st77{fill:#E59991;}
	.st78{fill:#FFE6E3;}
	.st79{fill:#1578AF;}
	.st80{fill:#4EA2C6;}
	.st81{fill:#5E3312;}
	.st82{fill:#E2A86A;}
	.st83{fill:#4F2A0F;}
	.st84{fill:#301808;}
	.st85{fill:#965123;}
	.st86{fill:#823B00;}
	.st87{fill:#EA8B3D;}
	.st88{fill:#D39163;}
</style>
<g id="_x30_1">
</g>
<g id="_x30_2">
</g>
<g id="_x30_3">
</g>
<g id="_x30_4">
</g>
<g id="_x30_5">
</g>
<g id="_x30_6">
</g>
<g id="_x30_7">
</g>
<g id="_x30_8">
</g>
<g id="_x30_9">
</g>
<g id="_x31_0">
</g>
<g id="_x31_1">
</g>
<g id="_x31_2">
	<g>
		<g>
			<path class="st15" d="M103.549,23.294c-1.737,0-3.149-1.413-3.149-3.149c0-0.553-0.448-1-1-1s-1,0.447-1,1
				c0,1.736-1.413,3.149-3.149,3.149c-0.552,0-1,0.447-1,1s0.448,1,1,1c1.737,0,3.149,1.413,3.149,3.149c0,0.553,0.448,1,1,1
				s1-0.447,1-1c0-1.736,1.413-3.149,3.149-3.149c0.552,0,1-0.447,1-1S104.102,23.294,103.549,23.294z" />
				
		</g>
		<g>
			<path class="st28" d="M95,37.58v69.84c0,3.08-2.5,5.58-5.58,5.58H38.58c-3.08,0-5.58-2.5-5.58-5.58V37.58
				C33,34.5,35.5,32,38.58,32h50.84C92.5,32,95,34.5,95,37.58z" />
		</g>
		<g>
			<path class="st10" d="M95,37.58v69.84c0,3.08-2.5,5.58-5.58,5.58h-8c3.08,0,5.58-2.5,5.58-5.58V37.58C87,34.5,84.5,32,81.42,32h8
				C92.5,32,95,34.5,95,37.58z" />
		</g>
		<g>
			<path class="st29" d="M44.64,113h-6.06c-3.08,0-5.58-2.5-5.58-5.58V37.58C33,34.5,35.5,32,38.58,32h6.06
				c-3.08,0-5.58,2.5-5.58,5.58v69.84C39.06,110.5,41.56,113,44.64,113z" />
		</g>
		<g>
			<path class="st36" d="M89,37H49c-0.552,0-1,0.447-1,1c0,0.309,0.148,0.575,0.368,0.758l-8.737,10.484
				C39.458,49.097,39.243,49,39,49c-0.552,0-1,0.447-1,1v57c0,0.553,0.448,1,1,1h50c0.552,0,1-0.447,1-1V38
				C90,37.447,89.552,37,89,37z" />
		</g>
		<g>
			<path class="st1" d="M50.34,38.06c-0.395-0.143-0.839-0.023-1.108,0.3l-10,12c-0.249,0.299-0.302,0.714-0.138,1.064
				C39.259,51.775,39.612,52,40,52h7.864C49.593,52,51,50.594,51,48.864V39C51,38.579,50.736,38.203,50.34,38.06z" />
		</g>
		<g>
			<path class="st1" d="M90,38v69c0,0.55-0.45,1-1,1H39c-0.55,0-1-0.45-1-1v-4h45c0.55,0,1-0.45,1-1V37h5C89.55,37,90,37.45,90,38z"
				/>
		</g>
		<g>
			<path class="st50" d="M49.34,37.06c-0.395-0.143-0.839-0.023-1.108,0.3l-10,12c-0.249,0.299-0.302,0.714-0.138,1.064
				C38.259,50.775,38.612,51,39,51h7.864C48.593,51,50,49.594,50,47.864V38C50,37.579,49.736,37.203,49.34,37.06z" />
		</g>
		<g>
			<path d="M89.42,113H38.58c-3.077,0-5.58-2.503-5.58-5.58V46.33c0-0.553,0.448-1,1-1s1,0.447,1,1v61.09
				c0,1.974,1.606,3.58,3.58,3.58h50.84c1.974,0,3.58-1.606,3.58-3.58V37.58c0-1.974-1.606-3.58-3.58-3.58H38.58
				C36.606,34,35,35.606,35,37.58v0.85c0,0.553-0.448,1-1,1s-1-0.447-1-1v-0.85c0-3.077,2.503-5.58,5.58-5.58h50.84
				c3.077,0,5.58,2.503,5.58,5.58v69.84C95,110.497,92.497,113,89.42,113z" />
		</g>
		<g>
			<path d="M39,78.86c-0.552,0-1-0.447-1-1V50c0-0.553,0.448-1,1-1s1,0.447,1,1v27.86C40,78.413,39.552,78.86,39,78.86z"  />
		</g>
		<g>
			<path d="M89,108H39c-0.552,0-1-0.447-1-1V83.3c0-0.553,0.448-1,1-1s1,0.447,1,1V106h48V39H49c-0.552,0-1-0.447-1-1s0.448-1,1-1
				h40c0.552,0,1,0.447,1,1v69C90,107.553,89.552,108,89,108z"  />
		</g>
		<g>
			<path class="st15" d="M76,30v10c0,0.55-0.45,1-1,1H54c-0.55,0-1-0.45-1-1V30c0-0.55,0.45-1,1-1h6.03
				c0.01-0.04,0.01-0.09,0.02-0.13C60.36,26.68,62.24,25,64.5,25c2.31,0,4.22,1.75,4.47,4H75C75.55,29,76,29.45,76,30z"  />
		</g>
		<g>
			<path class="st27" d="M60.4,30c0,0.55-0.22,1.05-0.59,1.41C59.45,31.78,58.95,32,58.4,32H53v-2c0-0.55,0.45-1,1-1h6.03
				c0.01-0.04,0.01-0.09,0.02-0.13C60.27,29.19,60.4,29.58,60.4,30z"  />
		</g>
		<g>
			<path class="st27" d="M63.4,32L63.4,32c-1.105,0-2-0.895-2-2v0c0-1.105,0.895-2,2-2l0,0c1.105,0,2,0.895,2,2v0
				C65.4,31.105,64.505,32,63.4,32z" />
		</g>
		<g>
			<path class="st16" d="M76,30v10c0,0.55-0.45,1-1,1H54c-0.55,0-1-0.45-1-1v-2.68h18.05c0.55,0,1-0.45,1-1V29H75
				C75.55,29,76,29.45,76,30z"  />
		</g>
		<g>
			<path d="M75,41H54c-0.552,0-1-0.447-1-1V30c0-0.553,0.448-1,1-1s1,0.447,1,1v9h19v-8h-6c-0.552,0-1-0.447-1-1v-0.5
				c0-1.379-1.122-2.5-2.5-2.5S62,28.121,62,29.5V30c0,0.553-0.448,1-1,1h-1.75c-0.552,0-1-0.447-1-1s0.448-1,1-1h0.778
				c0.25-2.247,2.16-4,4.472-4s4.223,1.753,4.472,4H75c0.552,0,1,0.447,1,1v10C76,40.553,75.552,41,75,41z"  />
		</g>
		<g>
			<g>
				<path d="M64.533,31.837c-0.837,0-1.519-0.682-1.519-1.519s0.682-1.519,1.519-1.519c0.837,0,1.519,0.682,1.519,1.519
					S65.37,31.837,64.533,31.837z" />
			</g>
		</g>
		<g>
			<path d="M46.864,51H39c-0.388,0-0.741-0.225-0.906-0.576c-0.165-0.351-0.111-0.766,0.138-1.064l10-12
				c0.269-0.323,0.714-0.442,1.108-0.3C49.736,37.203,50,37.579,50,38v9.864C50,49.594,48.593,51,46.864,51z M41.135,49h5.729
				C47.49,49,48,48.49,48,47.864v-7.103L41.135,49z" />
		</g>
		<g>
			<path d="M76,46H53c-0.552,0-1-0.447-1-1s0.448-1,1-1h23c0.552,0,1,0.447,1,1S76.552,46,76,46z" />
		</g>
		<g>
			<circle class="st38" cx="22" cy="105" r="4"/>
		</g>
		<g>
			<path d="M82,99H69c-0.552,0-1-0.447-1-1s0.448-1,1-1h13c0.552,0,1,0.447,1,1S82.552,99,82,99z" />
		</g>
		<g>
			<path d="M82,51H53c-0.552,0-1-0.447-1-1s0.448-1,1-1h29c0.552,0,1,0.447,1,1S82.552,51,82,51z"/>
		</g>
		<g>
			<path d="M82,60H53c-0.552,0-1-0.447-1-1s0.448-1,1-1h29c0.552,0,1,0.447,1,1S82.552,60,82,60z"/>
		</g>
		<g>
			<path class="st50" d="M49,56h-5c-0.552,0-1,0.447-1,1v5c0,0.553,0.448,1,1,1h5c0.552,0,1-0.447,1-1v-5C50,56.447,49.552,56,49,56
				z"/>
		</g>
		<g>
			<path class="st50" d="M49,70h-5c-0.552,0-1,0.447-1,1v5c0,0.553,0.448,1,1,1h5c0.552,0,1-0.447,1-1v-5C50,70.447,49.552,70,49,70
				z"/>
		</g>
		<g>
			<path class="st50" d="M49,84h-5c-0.552,0-1,0.447-1,1v5c0,0.553,0.448,1,1,1h5c0.552,0,1-0.447,1-1v-5C50,84.447,49.552,84,49,84
				z"/>
		</g>
		<g>
			<path d="M49,63h-5c-0.552,0-1-0.447-1-1v-5c0-0.553,0.448-1,1-1h5c0.552,0,1,0.447,1,1v5C50,62.553,49.552,63,49,63z M45,61h3v-3
				h-3V61z"/>
		</g>
		<g>
			<path d="M82,74H53c-0.552,0-1-0.447-1-1s0.448-1,1-1h29c0.552,0,1,0.447,1,1S82.552,74,82,74z"/>
		</g>
		<g>
			<path d="M49,77h-5c-0.552,0-1-0.447-1-1v-5c0-0.553,0.448-1,1-1h5c0.552,0,1,0.447,1,1v5C50,76.553,49.552,77,49,77z M45,75h3v-3
				h-3V75z"/>
		</g>
		<g>
			<path d="M82,88H53c-0.552,0-1-0.447-1-1s0.448-1,1-1h29c0.552,0,1,0.447,1,1S82.552,88,82,88z"/>
		</g>
		<g>
			<path d="M49,91h-5c-0.552,0-1-0.447-1-1v-5c0-0.553,0.448-1,1-1h5c0.552,0,1,0.447,1,1v5C50,90.553,49.552,91,49,91z M45,89h3v-3
				h-3V89z"/>
		</g>
		<g>
			<path d="M98.371,26.72c-0.283,0-0.563-0.119-0.762-0.352c-0.584-0.686-1.444-1.078-2.359-1.078c-0.552,0-1-0.447-1-1s0.448-1,1-1
				c1.737,0,3.15-1.413,3.15-3.15c0-0.553,0.448-1,1-1s1,0.447,1,1c0,0.739,0.259,1.457,0.728,2.02
				c0.354,0.425,0.296,1.055-0.127,1.408c-0.425,0.354-1.056,0.297-1.409-0.127c-0.068-0.081-0.133-0.165-0.195-0.25
				c-0.309,0.42-0.681,0.791-1.101,1.1c0.304,0.227,0.585,0.487,0.835,0.781c0.358,0.42,0.308,1.051-0.112,1.409
				C98.831,26.642,98.6,26.72,98.371,26.72z" fill="#FFFFFF"/>
		</g>
		<g>
			<g>
				<path d="M102.106,118.493c-0.552,0-1-0.447-1-1v-5.188c0-0.553,0.448-1,1-1s1,0.447,1,1v5.188
					C103.106,118.046,102.658,118.493,102.106,118.493z" fill="#FFFFFF"/>
			</g>
			<g>
				<path d="M104.699,115.899h-5.187c-0.552,0-1-0.447-1-1s0.448-1,1-1h5.187c0.552,0,1,0.447,1,1S105.251,115.899,104.699,115.899z
					" fill="#FFFFFF"/>
			</g>
		</g>
		<g>
			<path d="M21.631,108.97c-0.038,0-0.077-0.002-0.116-0.007C19.512,108.733,18,107.029,18,105c0-2.206,1.794-4,4-4
				c1.174,0,2.28,0.512,3.034,1.404c0.356,0.423,0.303,1.054-0.119,1.409c-0.421,0.357-1.053,0.305-1.409-0.118
				C23.133,103.253,22.584,103,22,103c-1.103,0-2,0.897-2,2c0,1.013,0.75,1.862,1.744,1.977c0.548,0.062,0.942,0.559,0.879,1.107
				C22.565,108.594,22.132,108.97,21.631,108.97z" fill="#FFFFFF"/>
		</g>
		<g>
			<g>
				<path d="M24.128,28.917c-0.837,0-1.519-0.682-1.519-1.519s0.682-1.519,1.519-1.519s1.519,0.682,1.519,1.519
					S24.965,28.917,24.128,28.917z" fill="#FFFFFF"/>
			</g>
		</g>
		<g>
			<path d="M109.64,47.13c-0.189,0-0.378-0.054-0.541-0.159l-2.826-1.818l-0.69,1.368c-0.248,0.493-0.849,0.694-1.343,0.442
				c-0.493-0.248-0.691-0.85-0.443-1.343l1.19-2.36c0.128-0.253,0.357-0.44,0.63-0.515c0.272-0.075,0.565-0.029,0.804,0.124
				l2.712,1.745l2.418-6.56c0.125-0.338,0.421-0.583,0.777-0.641c0.353-0.067,0.714,0.078,0.94,0.358l1.71,2.122l1.818-3.414
				c0.261-0.487,0.866-0.67,1.353-0.413c0.487,0.26,0.672,0.865,0.413,1.353l-2.53,4.75c-0.158,0.297-0.454,0.494-0.789,0.525
				c-0.332,0.032-0.663-0.106-0.873-0.367l-1.553-1.927l-2.24,6.074c-0.105,0.285-0.333,0.507-0.621,0.603
				C109.854,47.113,109.747,47.13,109.64,47.13z" fill="#FFFFFF"/>
		</g>
		<g>
			<path d="M102.029,52.34c-0.152,0-0.306-0.034-0.451-0.107c-0.493-0.25-0.69-0.852-0.44-1.344l1.29-2.55
				c0.249-0.494,0.851-0.691,1.344-0.441c0.493,0.25,0.69,0.852,0.44,1.344l-1.29,2.55C102.746,52.14,102.394,52.34,102.029,52.34z"
				fill="#FFFFFF"/>
		</g>
		<g>
			<path d="M18.36,47.13c-0.107,0-0.214-0.017-0.317-0.052c-0.288-0.096-0.516-0.317-0.621-0.603l-2.24-6.074l-1.553,1.927
				c-0.21,0.261-0.535,0.411-0.873,0.367c-0.334-0.031-0.63-0.229-0.789-0.525l-2.53-4.75c-0.259-0.487-0.075-1.093,0.413-1.353
				c0.489-0.257,1.093-0.074,1.353,0.413l1.818,3.414l1.71-2.122c0.227-0.28,0.587-0.425,0.94-0.358
				c0.355,0.058,0.652,0.303,0.777,0.641l2.418,6.56l2.712-1.745c0.238-0.152,0.531-0.198,0.804-0.124
				c0.273,0.074,0.502,0.262,0.63,0.515l1.12,2.22c0.249,0.493,0.051,1.094-0.442,1.343c-0.494,0.249-1.095,0.051-1.343-0.442
				l-0.62-1.229l-2.827,1.819C18.738,47.076,18.549,47.13,18.36,47.13z" fill="#FFFFFF"/>
		</g>
		<g>
			<path d="M25.971,52.34c-0.365,0-0.717-0.2-0.893-0.548l-1.18-2.33c-0.25-0.493-0.052-1.095,0.44-1.345
				c0.492-0.249,1.094-0.052,1.344,0.44l1.18,2.33c0.25,0.493,0.052,1.095-0.44,1.345C26.277,52.306,26.123,52.34,25.971,52.34z" fill="#FFFFFF"/>
		</g>
		<g>
			<path d="M98.999,67c-0.175,0-0.353-0.046-0.514-0.143c-0.474-0.284-0.627-0.898-0.343-1.372l3-5
				c0.284-0.474,0.898-0.628,1.372-0.343c0.474,0.284,0.627,0.898,0.343,1.372l-3,5C99.67,66.827,99.339,67,98.999,67z" fill="#FFFFFF"/>
		</g>
		<g>
			<path d="M104.599,75.104c-0.506,0-0.94-0.383-0.993-0.897c-0.057-0.549,0.342-1.04,0.892-1.098l5.8-0.6
				c0.543-0.048,1.041,0.343,1.098,0.893c0.057,0.549-0.342,1.04-0.892,1.098l-5.8,0.6
				C104.668,75.103,104.633,75.104,104.599,75.104z" fill="#FFFFFF"/>
		</g>
		<g>
			<path d="M102,71c-0.29,0-0.577-0.125-0.774-0.367c-0.35-0.427-0.287-1.057,0.141-1.407l11-9c0.428-0.348,1.058-0.287,1.407,0.142
				c0.35,0.427,0.287,1.057-0.141,1.407l-11,9C102.447,70.926,102.223,71,102,71z" fill="#FFFFFF"/>
		</g>
		<g>
			<path d="M26.798,69.225c-0.133,0-0.269-0.026-0.399-0.083l-5.346-2.33c-0.506-0.221-0.738-0.811-0.517-1.316
				c0.22-0.506,0.809-0.739,1.316-0.518l5.346,2.33c0.506,0.221,0.738,0.811,0.517,1.316C27.552,69,27.184,69.225,26.798,69.225z" fill="#FFFFFF"/>
		</g>
		<g>
			<path d="M21.875,81.953c-0.348,0-0.687-0.182-0.871-0.506c-0.272-0.48-0.104-1.091,0.376-1.363l5.07-2.879
				c0.48-0.272,1.091-0.105,1.363,0.375c0.272,0.48,0.104,1.091-0.376,1.363l-5.07,2.879C22.211,81.911,22.042,81.953,21.875,81.953
				z" fill="#FFFFFF"/>
		</g>
		<g>
			<path d="M26.679,74.223c-0.022,0-0.044-0.001-0.067-0.002L12.43,73.279c-0.551-0.037-0.968-0.514-0.931-1.064
				c0.036-0.552,0.51-0.954,1.064-0.932l14.182,0.941c0.551,0.037,0.968,0.514,0.931,1.064
				C27.641,73.817,27.201,74.223,26.679,74.223z" fill="#FFFFFF"/>
		</g>
		<g>
			<path d="M50,25c-0.219,0-0.44-0.071-0.624-0.219l-5-4c-0.432-0.346-0.501-0.975-0.156-1.406c0.345-0.43,0.976-0.5,1.405-0.156
				l5,4c0.432,0.346,0.501,0.975,0.156,1.406C50.583,24.871,50.292,25,50,25z" fill="#FFFFFF"/>
		</g>
		<g>
			<path d="M63.75,21.556c-0.078,0-0.157-0.009-0.236-0.028c-0.537-0.129-0.867-0.67-0.737-1.206l1.502-6.225
				c0.13-0.537,0.668-0.869,1.207-0.737c0.537,0.129,0.867,0.67,0.737,1.206l-1.502,6.225C64.61,21.248,64.201,21.556,63.75,21.556z
				" fill="#FFFFFF"/>
		</g>
		<g>
			<path d="M55.03,18.49c-0.411,0-0.796-0.255-0.942-0.664l-3.03-8.49c-0.186-0.52,0.085-1.092,0.606-1.277
				c0.52-0.188,1.092,0.085,1.278,0.605l3.03,8.49c0.186,0.52-0.085,1.092-0.606,1.277C55.255,18.472,55.141,18.49,55.03,18.49z" fill="#FFFFFF"/>
		</g>
		<g>
			<path d="M57,24c-0.41,0-0.795-0.254-0.941-0.663l-0.91-2.54c-0.187-0.52,0.084-1.092,0.604-1.278
				c0.521-0.187,1.093,0.084,1.279,0.604l0.91,2.54c0.187,0.52-0.084,1.092-0.604,1.278C57.226,23.981,57.112,24,57,24z" fill="#FFFFFF"/>
		</g>
		<g>
			<g>
				<path class="st30" d="M98.03,90.2c-5.44,9.34-10.97,10.73-11.21,10.79c-0.07,0.01-0.15,0.02-0.22,0.02c-0.08,0-0.15,0-0.22-0.02
					c-0.25-0.05-6.15-1.44-11.6-10.79c-1.46-2.51-2.36-4.89-2.91-7.04c-1.49-5.88-0.27-10.04-0.2-10.27
					c0.13-0.42,0.52-0.71,0.96-0.71h2.64c1.53,0,2.78-1.4,2.78-3.12c0-0.56,0.44-1,1-1h14.72c0.55,0,1,0.44,1,1
					c0,1.72,1.24,3.12,2.77,3.12h2.65c0.44,0,0.82,0.29,0.95,0.71C101.24,73.21,103.47,80.85,98.03,90.2z" fill="#FFFFFF"/>
			</g>
			<g>
				<path class="st67" d="M85.36,68.06l-1.764,2.946C83.226,71.622,82.56,72,81.841,72H80c0,0,0,3-2,3s-4,0-4,0
					s-1.73,4.62-2.13,8.16c-1.49-5.88-0.27-10.04-0.2-10.27c0.13-0.42,0.52-0.71,0.96-0.71h2.64c1.539,0,2.794-1.416,2.78-3.149
					c-0.004-0.541,0.459-0.971,1-0.971H85.36z" />
			</g>
			<g>
				<path class="st18" d="M98.03,90.2c-5.44,9.34-10.97,10.73-11.21,10.79c-0.07,0.01-0.15,0.02-0.22,0.02c-0.08,0-0.15,0-0.22-0.02
					c-0.25-0.05-6.15-1.44-11.6-10.79c-1.74-3-2.7-5.82-3.19-8.28c0.34,0.75,0.74,1.51,1.19,2.28c5.45,9.35,11.35,10.74,11.6,10.79
					c0.07,0.02,0.14,0.02,0.22,0.02c0.07,0,0.15-0.01,0.22-0.02c0.24-0.06,5.77-1.45,11.21-10.79c2.71-4.67,3.52-8.91,3.63-12.02
					h0.53c0.44,0,0.82,0.29,0.95,0.71C101.24,73.21,103.47,80.85,98.03,90.2z" />
			</g>
			<g>
				<path d="M86.6,101.01c-0.072,0-0.143-0.008-0.214-0.023c-0.249-0.054-6.162-1.441-11.601-10.793
					c-5.447-9.35-3.21-16.985-3.112-17.306c0.128-0.421,0.517-0.708,0.957-0.708h2.64c1.533,0,2.78-1.399,2.78-3.12
					c0-0.553,0.448-1,1-1h11.69c0.552,0,1,0.447,1,1s-0.448,1-1,1H79.958c-0.436,2.347-2.372,4.12-4.688,4.12h-1.842
					c-0.373,2.002-0.988,8.016,3.086,15.008c4.367,7.509,9.003,9.422,10.076,9.777c1.01-0.361,5.352-2.287,9.716-9.778
					c4.065-6.989,3.456-13.001,3.085-15.007H97.54c-1.81,0-3.487-1.122-4.271-2.857c-0.228-0.504-0.004-1.096,0.5-1.323
					c0.502-0.229,1.096-0.003,1.323,0.499c0.469,1.037,1.407,1.682,2.449,1.682h2.65c0.44,0,0.829,0.288,0.957,0.709
					c0.098,0.32,2.325,7.955-3.112,17.305c-5.444,9.344-10.973,10.735-11.206,10.79C86.753,101.001,86.677,101.01,86.6,101.01z" />
			</g>
			<g>
				<path class="st15" d="M94.51,88.51c-3.73,6.41-7.59,7.38-7.75,7.42c-0.07,0.02-0.15,0.03-0.23,0.03c-0.07,0-0.14-0.01-0.21-0.03
					c-0.17-0.04-4.28-1-8.02-7.42c-0.03-0.05-0.06-0.11-0.09-0.16c-3.62-6.35-2.1-11.53-2.04-11.75c0.13-0.42,0.52-0.71,0.96-0.71
					h1.78c0.85,0,1.54-0.79,1.54-1.77c0-0.56,0.45-1,1-1h9.91c0.55,0,1,0.44,1,1c0,0.98,0.69,1.77,1.54,1.77h1.78
					c0.44,0,0.83,0.29,0.96,0.71C96.71,76.82,98.25,82.09,94.51,88.51z"  />
			</g>
			<g>
				<path class="st27" d="M87,73.12v3.84c0,0.575-0.466,1.04-1.04,1.04H84c0,0,0,2-2,2c-1,0-2,0-2,0s-1,3-1,7
					c0,1.14-0.33,1.47-0.79,1.35c-3.62-6.35-2.1-11.53-2.04-11.75c0.13-0.42,0.52-0.71,0.96-0.71h1.78c0.85,0,1.54-0.79,1.54-1.77
					c0-0.56,0.45-1,1-1H87z"  />
			</g>
			<g>
				<path class="st16" d="M94.51,88.51c-3.73,6.41-7.59,7.38-7.75,7.42c-0.07,0.02-0.15,0.03-0.23,0.03c-0.07,0-0.14-0.01-0.21-0.03
					c-0.17-0.04-4.28-1-8.02-7.42c-1.07-1.83-1.7-3.57-2.07-5.12c0.02,0.04,0.05,0.08,0.07,0.12c3.74,6.42,7.85,7.38,8.02,7.42
					c0.07,0.02,0.14,0.03,0.21,0.03c0.08,0,0.16-0.01,0.23-0.03c0.16-0.04,4.02-1.01,7.75-7.42c1.69-2.89,2.3-5.55,2.45-7.62h0.72
					c0.44,0,0.83,0.29,0.96,0.71C96.71,76.82,98.25,82.09,94.51,88.51z" />
			</g>
			<g>
				<path class="st36" d="M88.913,81.951c0.576-0.547,0.914-1.313,0.914-2.128c0-1.617-1.316-2.934-2.934-2.934
					s-2.934,1.316-2.934,2.934c0,0.814,0.338,1.58,0.914,2.128l-1.176,6.82c-0.05,0.291,0.031,0.589,0.221,0.814
					s0.47,0.355,0.765,0.355h4.421c0.295,0,0.575-0.13,0.765-0.355s0.271-0.523,0.221-0.814L88.913,81.951z"  />
			</g>
			<g>
				<path d="M86.53,95.95c-0.071,0-0.143-0.008-0.213-0.022c-0.173-0.038-4.282-0.998-8.021-7.414
					c-3.727-6.413-2.19-11.692-2.123-11.914c0.128-0.422,0.517-0.71,0.957-0.71h1.78c0.126,0,0.263-0.021,0.407-0.062
					c0.534-0.152,1.084,0.158,1.235,0.689c0.151,0.531-0.158,1.084-0.689,1.234c-0.322,0.092-0.642,0.138-0.953,0.138h-0.966
					c-0.232,1.515-0.44,5.28,2.081,9.618c2.766,4.746,5.667,6.092,6.495,6.393c0.775-0.305,3.506-1.657,6.266-6.395
					c2.527-4.335,2.316-8.1,2.082-9.616H93.9c-1.627,0-3.001-1.175-3.414-2.77H82.34c-0.552,0-1-0.447-1-1s0.448-1,1-1h9.02
					c0.552,0,1,0.447,1,1c0,0.976,0.691,1.77,1.54,1.77h1.78c0.44,0,0.828,0.287,0.957,0.708c0.067,0.222,1.614,5.502-2.123,11.916
					c-3.734,6.409-7.595,7.372-7.757,7.41C86.682,95.941,86.606,95.95,86.53,95.95z" />
			</g>
			<g>
				<path d="M89.1,89.94h-4.42c-0.295,0-0.574-0.13-0.765-0.355c-0.19-0.226-0.271-0.522-0.221-0.813l0.44-2.57
					c0.094-0.544,0.607-0.907,1.155-0.816c0.544,0.093,0.91,0.609,0.817,1.154l-0.24,1.401h2.047l-1.022-5.929l-0.354,2.067
					c-0.094,0.545-0.611,0.909-1.155,0.816c-0.544-0.093-0.91-0.61-0.817-1.154l0.307-1.789c-0.574-0.547-0.911-1.313-0.911-2.132
					c0-1.616,1.314-2.931,2.93-2.931c1.621,0,2.94,1.314,2.94,2.931c0,0.817-0.341,1.585-0.92,2.133l1.176,6.817
					c0.05,0.291-0.03,0.589-0.221,0.814C89.675,89.811,89.395,89.94,89.1,89.94z M86.89,78.89c-0.504,0-0.93,0.426-0.93,0.931
					c0,0.345,0.184,0.66,0.481,0.822c0.209,0.115,0.365,0.297,0.449,0.509c0.083-0.212,0.239-0.394,0.449-0.509
					c0.303-0.166,0.491-0.481,0.491-0.822C87.83,79.308,87.408,78.89,86.89,78.89z" />
			</g>
		</g>
		<g>
			<path d="M100.36,23.795c-0.552,0-1-0.442-1-0.995v-0.01c0-0.553,0.448-1,1-1s1,0.447,1,1S100.912,23.795,100.36,23.795z"  />
		</g>
	</g>
</g>
<g id="_x31_3">
</g>
<g id="_x31_4">
</g>
<g id="_x31_5">
</g>
<g id="_x31_6">
</g>
<g id="_x31_7">
</g>
<g id="_x31_8">
</g>
<g id="_x31_9">
</g>
<g id="_x32_0">
</g>
</svg>
