<?xml version="1.0" encoding="utf-8"?>
<!-- Generator: Adobe Illustrator 24.2.1, SVG Export Plug-In . SVG Version: 6.00 Build 0)  -->
<svg version="1.1" xmlns="http://www.w3.org/2000/svg" xmlns:xlink="http://www.w3.org/1999/xlink" x="0px" y="0px"
	 viewBox="0 0 128 128" style="enable-background:new 0 0 128 128;" xml:space="preserve">
<style type="text/css">
	.st0{fill:#7DEEFF;}
	.st1{fill:#4DC2CE;}
	.st2{fill:#4C4947;}
	.st3{fill:#75716D;}
	.st4{fill:#2B2927;}
	.st5{fill:#FF3968;}
	.st6{fill:#FF85AE;}
	.st7{fill:#CC194C;}
	.st8{fill:#00E77B;}
	.st9{fill:#EBFFFF;}
	.st10{fill:#004573;}
	.st11{fill:#3C8AB5;}
	.st12{fill:#012E47;}
	.st13{fill:#FFC745;}
	.st14{fill:#FF0097;}
	.st15{fill:#FFBD5B;}
	.st16{fill:#FF7B5B;}
	.st17{fill:#FF0077;}
	.st18{fill:#BC005E;}
	.st19{fill:#FFBF45;}
	.st20{fill:#FFF15C;}
	.st21{fill:#915524;}
	.st22{fill:#5B3314;}
	.st23{fill:#B95A00;}
	.st24{fill:#E58D45;}
	.st25{fill:#CE9D78;}
	.st26{fill:#FE4B9E;}
	.st27{fill:#FFF973;}
	.st28{fill:#006ED0;}
	.st29{fill:#43AFFF;}
	.st30{fill:#FF00A2;}
	.st31{fill:#03263A;}
	.st32{fill:#B22D59;}
	.st33{fill:#FFA9CC;}
	.st34{fill:#52B1DB;}
	.st35{fill:#FF00F4;}
	.st36{fill:#A4F3FF;}
	.st37{fill:#73BBD8;}
	.st38{fill:#00FF51;}
	.st39{fill:#06C460;}
	.st40{fill:#EE4C7B;}
	.st41{fill:#FFEB99;}
	.st42{fill:#45E7FF;}
	.st43{fill:#27B9C4;}
	.st44{fill:#B6FDFF;}
	.st45{fill:#E70045;}
	.st46{fill:#AA073D;}
	.st47{opacity:0.5;}
	.st48{fill:#D0FAFF;}
	.st49{fill:#ACDEE2;}
	.st50{fill:#FFFFFF;}
	.st51{fill:#FF9CBD;}
	.st52{fill:#AD003A;}
	.st53{fill:#CFE3E5;}
	.st54{fill:#173EFF;}
	.st55{fill:#4399C9;}
	.st56{fill:#092EB5;}
	.st57{fill:#40C9FF;}
	.st58{fill:#DCFFE2;}
	.st59{display:none;}
	.st60{display:inline;fill:none;stroke:#BBD7FF;stroke-width:2;stroke-linecap:round;stroke-linejoin:round;stroke-miterlimit:10;}
	.st61{fill:#C7FFD2;}
	.st62{fill:#2EE8FF;}
	.st63{fill:#025593;}
	.st64{fill:#2E7EFF;}
	.st65{fill:#FF6E9E;}
	.st66{fill:none;stroke:#000000;stroke-width:2;stroke-linecap:round;stroke-linejoin:round;stroke-miterlimit:10;}
	.st67{fill:#FF99E0;}
	
		.st68{display:none;fill:none;stroke:#28304F;stroke-width:2;stroke-linecap:round;stroke-linejoin:round;stroke-miterlimit:10;stroke-dasharray:7;}
	.st69{fill:#F8FFFF;}
	.st70{fill:#67C9D3;}
	.st71{fill:#88CFFF;}
	.st72{fill:#1334AA;}
	.st73{fill:#63B2BA;}
	.st74{fill:#033551;}
	.st75{fill:#8C224B;}
	.st76{fill:#FFC7BE;}
	.st77{fill:#E59991;}
	.st78{fill:#FFE6E3;}
	.st79{fill:#1578AF;}
	.st80{fill:#4EA2C6;}
	.st81{fill:#5E3312;}
	.st82{fill:#E2A86A;}
	.st83{fill:#4F2A0F;}
	.st84{fill:#301808;}
	.st85{fill:#965123;}
	.st86{fill:#823B00;}
	.st87{fill:#EA8B3D;}
	.st88{fill:#D39163;}
</style>
<g id="_x30_1">
</g>
<g id="_x30_2">
</g>
<g id="_x30_3">
</g>
<g id="_x30_4">
</g>
<g id="_x30_5">
</g>
<g id="_x30_6">
</g>
<g id="_x30_7">
</g>
<g id="_x30_8">
	<g>
		<g>
			<path class="st10" d="M48,72v44c0,0.55-0.45,1-1,1H32c-0.55,0-1-0.45-1-1V72c0-0.55,0.45-1,1-1h15C47.55,71,48,71.45,48,72z"/>
		</g>
		<g>
			<path class="st10" d="M99,72v44c0,0.55-0.45,1-1,1H83c-0.55,0-1-0.45-1-1V72c0-0.55,0.45-1,1-1h15C98.55,71,99,71.45,99,72z"/>
		</g>
		<g>
			<path class="st31" d="M90,117h-6.667C82.6,117,82,116.55,82,116V72c0-0.55,0.6-1,1.333-1H90c-0.733,0-1.333,0.45-1.333,1v44
				C88.667,116.55,89.267,117,90,117z"/>
		</g>
		<g>
			<path class="st31" d="M38.967,117l6.667,0c0.733,0,1.333-0.45,1.333-1l-0.001-44.001c0-0.55-0.6-1-1.333-1l-6.667,0
				c0.733,0,1.333,0.45,1.333,1L40.3,116C40.3,116.55,39.7,117,38.967,117z"/>
		</g>
		<g>
			<path class="st36" d="M71,18v24c0,0.55-0.45,1-1,1H56c-0.55,0-1-0.45-1-1V26c0-0.36,0.19-0.69,0.5-0.87l9.25-5.29l4.75-2.71
				c0.31-0.18,0.69-0.17,1,0.01C70.81,17.31,71,17.64,71,18z"/>
		</g>
		<g>
			<path class="st50" d="M61.384,25.039c1.292-2.062,2.509-3.915,3.366-5.199l-9.25,5.29C55.19,25.31,55,25.64,55,26v11
				c0.761-2.278,2.531-5.567,4.433-8.77C59.8,28.695,60.362,29,61,29c1.105,0,2-0.895,2-2C63,26.027,62.304,25.218,61.384,25.039z"
				/>
		</g>
		<g>
			<path class="st37" d="M71,18v24c0,0.55-0.45,1-1,1h-5c0.55,0,1-0.45,1-1V19.13l3.5-2c0.31-0.18,0.69-0.17,1,0.01
				C70.81,17.31,71,17.64,71,18z"/>
		</g>
		<g>
			<path d="M70,43H56c-0.552,0-1-0.448-1-1V27.67c0-0.552,0.448-1,1-1s1,0.448,1,1V41h12V19.723l-9.124,5.215
				c-0.479,0.274-1.089,0.108-1.364-0.372c-0.274-0.479-0.107-1.09,0.372-1.364l10.62-6.07c0.31-0.177,0.69-0.176,0.998,0.003
				C70.811,17.314,71,17.644,71,18v24C71,42.552,70.553,43,70,43z"/>
		</g>
		<g>
			<path class="st40" d="M84,24v92c0,0.55-0.45,1-1,1H47c-0.55,0-1-0.45-1-1V44c0-0.36,0.2-0.7,0.51-0.87l15.32-8.51L76,26.75
				l6.51-3.62C82.66,23.04,82.83,23,83,23c0.18,0,0.35,0.05,0.51,0.14C83.81,23.32,84,23.65,84,24z"/>
		</g>
		<g>
			<path class="st34" d="M99,84.35v23.3c-0.45,0.23-0.96,0.35-1.5,0.35c-1.93,0-3.5-1.57-3.5-3.5v-17c0-1.93,1.57-3.5,3.5-3.5
				C98.04,84,98.55,84.12,99,84.35z"/>
		</g>
		<g>
			<path class="st34" d="M99,74.35v6.3C98.55,80.88,98.04,81,97.5,81c-1.93,0-3.5-1.57-3.5-3.5s1.57-3.5,3.5-3.5
				C98.04,74,98.55,74.12,99,74.35z"/>
		</g>
		<g>
			<path class="st32" d="M84,24v92c0,0.55-0.45,1-1,1h-7V26.75l6.51-3.62C82.66,23.04,82.83,23,83,23c0.18,0,0.35,0.05,0.51,0.14
				C83.81,23.32,84,23.65,84,24z"/>
		</g>
		<g>
			<path class="st33" d="M54.388,43.128l7.443-8.508l-15.32,8.51C46.2,43.3,46,43.64,46,44v20.5l4.091-14.32
				c0.159-0.558,0.356-1.102,0.579-1.635C51.306,49.423,52.333,50,53.5,50c1.933,0,3.5-1.567,3.5-3.5
				C57,44.876,55.888,43.522,54.388,43.128z"/>
		</g>
		<g>
			<path class="st34" d="M35,85.5v19c0,1.93-1.57,3.5-3.5,3.5c-0.17,0-0.34-0.01-0.5-0.04V82.04c0.16-0.03,0.33-0.04,0.5-0.04
				c0.96,0,1.84,0.39,2.47,1.03C34.61,83.66,35,84.54,35,85.5z"/>
		</g>
		<g>
			<path class="st34" d="M35,77.5c0,1.93-1.57,3.5-3.5,3.5c-0.17,0-0.34-0.01-0.5-0.04v-6.92c0.16-0.03,0.33-0.04,0.5-0.04
				C33.43,74,35,75.57,35,77.5z"/>
		</g>
		<g>
			<path class="st10" d="M69,98h-9c-0.552,0-1,0.448-1,1v17c0,0.552,0.448,1,1,1h9c0.553,0,1-0.448,1-1V99
				C70,98.448,69.553,98,69,98z"/>
		</g>
		<g>
			<path d="M83,117H47c-0.552,0-1-0.448-1-1V48.1c0-0.552,0.448-1,1-1s1,0.448,1,1V115h34V55.08c0-0.552,0.447-1,1-1s1,0.448,1,1
				V116C84,116.552,83.553,117,83,117z"/>
		</g>
		<g>
			<path d="M83,48.22c-0.553,0-1-0.448-1-1V25.7L49.416,43.804c-0.483,0.269-1.092,0.094-1.36-0.388
				c-0.269-0.483-0.094-1.092,0.388-1.36l34.07-18.93c0.308-0.173,0.688-0.168,0.992,0.012C83.812,23.318,84,23.646,84,24v23.22
				C84,47.772,83.553,48.22,83,48.22z"/>
		</g>
		<g>
			<path class="st31" d="M70,99v17c0,0.55-0.45,1-1,1h-4c0.55,0,1-0.45,1-1V99c0-0.55-0.45-1-1-1h4C69.55,98,70,98.45,70,99z"/>
		</g>
		<g>
			<path d="M98,117H83c-0.553,0-1-0.448-1-1V72c0-0.552,0.447-1,1-1h15c0.553,0,1,0.448,1,1v25.56c0,0.552-0.447,1-1,1s-1-0.448-1-1
				V73H84v42h13v-12.3c0-0.552,0.447-1,1-1s1,0.448,1,1V116C99,116.552,98.553,117,98,117z"/>
		</g>
		<g>
			<path d="M47,117H32c-0.552,0-1-0.448-1-1v-16c0-0.552,0.448-1,1-1s1,0.448,1,1v15h13V73H33v22.14c0,0.552-0.448,1-1,1
				s-1-0.448-1-1V72c0-0.552,0.448-1,1-1h15c0.552,0,1,0.448,1,1v44C48,116.552,47.552,117,47,117z"/>
		</g>
		<g>
			<path d="M110,117h-4.29c-0.553,0-1-0.448-1-1s0.447-1,1-1H110c0.553,0,1,0.448,1,1S110.553,117,110,117z"/>
		</g>
		<g>
			<path d="M103,117H22c-0.552,0-1-0.448-1-1s0.448-1,1-1h81c0.553,0,1,0.448,1,1S103.553,117,103,117z"/>
		</g>
		<g>
			<path d="M69,117h-9c-0.552,0-1-0.448-1-1V99c0-0.552,0.448-1,1-1h9c0.553,0,1,0.448,1,1v17C70,116.552,69.553,117,69,117z
				 M61,115h7v-15h-7V115z"/>
		</g>
		<g>
			<path d="M62,12.33c-0.552,0-1-0.448-1-1V9c0-0.552,0.448-1,1-1s1,0.448,1,1v2.33C63,11.882,62.552,12.33,62,12.33z"/>
		</g>
		<g>
			<path d="M62,23c-0.552,0-1-0.448-1-1v-8.36c0-0.552,0.448-1,1-1s1,0.448,1,1V22C63,22.552,62.552,23,62,23z"/>
		</g>
		<g>
			<path d="M54,64c-0.552,0-1-0.448-1-1v-9c0-0.552,0.448-1,1-1s1,0.448,1,1v9C55,63.552,54.552,64,54,64z"/>
		</g>
		<g>
			<path class="st36" d="M92,81h-4c-0.553,0-1,0.448-1,1v4c0,0.552,0.447,1,1,1h4c0.553,0,1-0.448,1-1v-4C93,81.448,92.553,81,92,81
				z"/>
		</g>
		<g>
			<path class="st36" d="M92,92h-4c-0.553,0-1,0.448-1,1v4c0,0.552,0.447,1,1,1h4c0.553,0,1-0.448,1-1v-4C93,92.448,92.553,92,92,92
				z"/>
		</g>
		<g>
			<path class="st36" d="M41,81h-4c-0.552,0-1,0.448-1,1v4c0,0.552,0.448,1,1,1h4c0.552,0,1-0.448,1-1v-4C42,81.448,41.552,81,41,81
				z"/>
		</g>
		<g>
			<path class="st36" d="M41,92h-4c-0.552,0-1,0.448-1,1v4c0,0.552,0.448,1,1,1h4c0.552,0,1-0.448,1-1v-4C42,92.448,41.552,92,41,92
				z"/>
		</g>
		<g>
			<path d="M74,64c-0.553,0-1-0.448-1-1v-9c0-0.552,0.447-1,1-1s1,0.448,1,1v9C75,63.552,74.553,64,74,64z"/>
		</g>
		<g>
			<path d="M64,64c-0.552,0-1-0.448-1-1V45c0-0.552,0.448-1,1-1s1,0.448,1,1v18C65,63.552,64.552,64,64,64z"/>
		</g>
		<g>
			<path d="M92,87h-4c-0.553,0-1-0.448-1-1v-4c0-0.552,0.447-1,1-1h4c0.553,0,1,0.448,1,1v4C93,86.552,92.553,87,92,87z M89,85h2v-2
				h-2V85z" />
		</g>
		<g>
			<path d="M92,98h-4c-0.553,0-1-0.448-1-1v-4c0-0.552,0.447-1,1-1h4c0.553,0,1,0.448,1,1v4C93,97.552,92.553,98,92,98z M89,96h2v-2
				h-2V96z" />
		</g>
		<g>
			<path class="st8" d="M103.268,12.881c-1.736,0-3.149-1.413-3.149-3.15c0-0.552-0.447-1-1-1s-1,0.448-1,1
				c0,1.737-1.413,3.15-3.149,3.15c-0.553,0-1,0.448-1,1s0.447,1,1,1c1.736,0,3.149,1.413,3.149,3.149c0,0.552,0.447,1,1,1
				s1-0.448,1-1c0-1.737,1.413-3.149,3.149-3.149c0.553,0,1-0.448,1-1S103.82,12.881,103.268,12.881z" />
		</g>
		<g>
			<path class="st15" d="M36.279,50.22c-2.097-0.683-4.359,0.465-5.043,2.562c-0.685,2.097,0.464,4.359,2.562,5.044
				c0.411,0.134,0.828,0.198,1.238,0.198c1.685,0,3.256-1.074,3.806-2.76c0.332-1.016,0.248-2.1-0.236-3.052
				C38.121,51.258,37.295,50.551,36.279,50.22z" />
		</g>
		<g>
			<path class="st36" d="M93.758,50.22c-1.016,0.332-1.842,1.039-2.325,1.991s-0.567,2.037-0.236,3.052
				c0.551,1.686,2.121,2.76,3.806,2.759c0.41,0,0.827-0.063,1.238-0.197c2.097-0.685,3.246-2.947,2.562-5.044
				C98.117,50.684,95.856,49.537,93.758,50.22z" />
		</g>
		<g>
			<path class="st28" d="M50.288,28.222c-2.096-0.685-4.359,0.464-5.043,2.562c-0.684,2.096,0.465,4.359,2.562,5.043
				c0.409,0.133,0.828,0.199,1.245,0.199c0.621,0,1.238-0.146,1.807-0.436c0.953-0.484,1.66-1.31,1.992-2.325c0,0,0,0,0,0
				C53.534,31.168,52.385,28.906,50.288,28.222z" />
		</g>
		<g>
			<path class="st8" d="M79.239,13.222c-1.016-0.331-2.1-0.248-3.053,0.236c-0.952,0.484-1.659,1.31-1.99,2.325
				c-0.332,1.016-0.248,2.1,0.235,3.053s1.31,1.66,2.325,1.991c0.408,0.133,0.828,0.199,1.245,0.199
				c0.621,0,1.238-0.146,1.808-0.436c0.952-0.484,1.659-1.31,1.991-2.325c0.331-1.016,0.247-2.1-0.236-3.052
				S80.255,13.553,79.239,13.222z" />
		</g>
		<g>
			<circle class="st42" cx="20" cy="95.906" r="4"/>
		</g>
		<g>
			<path d="M41,87h-4c-0.552,0-1-0.448-1-1v-4c0-0.552,0.448-1,1-1h4c0.552,0,1,0.448,1,1v4C42,86.552,41.552,87,41,87z M38,85h2v-2
				h-2V85z" />
		</g>
		<g>
			<path d="M41,98h-4c-0.552,0-1-0.448-1-1v-4c0-0.552,0.448-1,1-1h4c0.552,0,1,0.448,1,1v4C42,97.552,41.552,98,41,98z M38,96h2v-2
				h-2V96z" />
		</g>
		<g>
			<g>
				<path class="st15" d="M73.89,78.08v7.8c0,4.05-3.29,7.34-7.34,7.34h-3.48c-4.05,0-7.34-3.29-7.34-7.34v-7.8c0-0.55,0.45-1,1-1
					h16.16C73.44,77.08,73.89,77.53,73.89,78.08z" />
			</g>
			<g>
				<path class="st27" d="M59.81,85.88v-3.055C60.017,82.933,60.25,83,60.5,83c0.828,0,1.5-0.672,1.5-1.5S61.328,80,60.5,80
					c-0.25,0-0.483,0.067-0.69,0.175V78.08c0-0.55,0.45-1,1-1h-4c-0.55,0-1,0.45-1,1v7.8c0,4.05,3.29,7.34,7.34,7.34h1.48
					c0.43,0,0.85-0.04,1.26-0.12C62.44,92.51,59.81,89.5,59.81,85.88z" />
			</g>
			<g>
				<path class="st16" d="M73.89,78.08v7.8c0,4.05-3.29,7.34-7.34,7.34h-1.48c-0.43,0-0.85-0.04-1.26-0.12
					c3.45-0.59,6.08-3.6,6.08-7.22v-7.8c0-0.55-0.45-1-1-1h4C73.44,77.08,73.89,77.53,73.89,78.08z" />
			</g>
			<g>
				<path d="M66.55,93.22h-3.48c-4.047,0-7.34-3.293-7.34-7.34v-2.33c0-0.552,0.448-1,1-1s1,0.448,1,1v2.33
					c0,2.945,2.396,5.34,5.34,5.34h3.48c2.944,0,5.34-2.396,5.34-5.34v-6.8H57.73v0.95c0,0.552-0.448,1-1,1s-1-0.448-1-1v-1.95
					c0-0.552,0.448-1,1-1h16.16c0.553,0,1,0.448,1,1v7.8C73.89,89.927,70.597,93.22,66.55,93.22z" />
			</g>
			<g>
				<path d="M65.82,88.172h-2.214c-0.295,0-0.575-0.13-0.765-0.356s-0.271-0.523-0.221-0.814l0.548-3.177
					c-0.271-0.342-0.424-0.77-0.424-1.22c0-1.086,0.883-1.969,1.969-1.969c1.085,0,1.968,0.883,1.968,1.969
					c0,0.45-0.153,0.877-0.424,1.22l0.548,3.178c0.05,0.291-0.03,0.589-0.221,0.814C66.396,88.042,66.115,88.172,65.82,88.172z" />
			</g>
			<g>
				<path d="M68.85,79.08h-8.08c-0.552,0-1-0.448-1-1v-2.45c0-0.552,0.448-1,1-1s1,0.448,1,1v1.45h6.08v-3.94
					c0-1.18-0.96-2.14-2.14-2.14h-1.8c-1.052,0-1.959,0.784-2.11,1.824c-0.08,0.547-0.597,0.92-1.134,0.846
					c-0.546-0.08-0.925-0.587-0.846-1.134C60.114,70.52,61.872,69,63.91,69h1.8c2.282,0,4.14,1.857,4.14,4.14v4.94
					C69.85,78.632,69.402,79.08,68.85,79.08z" />
			</g>
		</g>
		<g>
			<path d="M64,65c-0.552,0-1-0.448-1-1v-3c0-0.552,0.448-1,1-1s1,0.448,1,1v3C65,64.552,64.552,65,64,65z" />
		</g>
		<g>
			<path d="M77.957,82.044c-0.256,0-0.507-0.098-0.697-0.284l-2.501-2.435c-0.396-0.385-0.404-1.018-0.02-1.414
				c0.386-0.396,1.019-0.404,1.414-0.019l0.47,0.457c-0.779-3.161-2.878-5.886-5.851-7.444c-0.489-0.256-0.679-0.861-0.422-1.35
				c0.257-0.488,0.861-0.679,1.35-0.421c4.451,2.333,7.231,6.894,7.257,11.905c0.002,0.403-0.238,0.768-0.608,0.925
				C78.222,82.019,78.089,82.044,77.957,82.044z" />
		</g>
		<g>
			<path d="M77.956,82.111c-0.15,0-0.303-0.034-0.446-0.105c-0.494-0.247-0.694-0.848-0.447-1.342l1.668-3.336
				c0.248-0.494,0.848-0.693,1.342-0.447c0.494,0.247,0.694,0.848,0.447,1.342l-1.668,3.336
				C78.676,81.909,78.323,82.111,77.956,82.111z" />
		</g>
		<g>
			<path d="M58.328,96c-0.156,0-0.315-0.037-0.463-0.114c-4.45-2.332-7.231-6.894-7.257-11.904
				c-0.002-0.403,0.238-0.768,0.609-0.926c0.371-0.156,0.799-0.077,1.089,0.204l2.501,2.436c0.396,0.385,0.404,1.018,0.019,1.414
				c-0.386,0.396-1.019,0.403-1.415,0.019l-0.47-0.458c0.779,3.161,2.878,5.886,5.852,7.444c0.489,0.256,0.678,0.861,0.421,1.35
				C59.036,95.805,58.688,96,58.328,96z" />
		</g>
		<g>
			<path d="M49.939,88.245c-0.15,0-0.303-0.034-0.446-0.105c-0.494-0.247-0.694-0.848-0.447-1.342l1.668-3.335
				c0.247-0.494,0.847-0.694,1.342-0.447c0.494,0.247,0.694,0.848,0.447,1.342l-1.668,3.335
				C50.659,88.042,50.306,88.245,49.939,88.245z" />
		</g>
		<g>
			<path d="M47,63h-6c-0.304,0-0.591-0.138-0.781-0.375l-4-5c-0.345-0.431-0.275-1.061,0.156-1.405
				c0.431-0.345,1.061-0.276,1.405,0.156L41.48,61H47c0.552,0,1,0.448,1,1S47.552,63,47,63z" />
		</g>
		<g>
			<path d="M35.05,58.023c-0.421,0-0.844-0.067-1.255-0.204c-0.629-0.21-1.174-0.55-1.623-1.013
				c-0.385-0.396-0.375-1.03,0.021-1.414c0.396-0.384,1.029-0.375,1.414,0.021c0.224,0.23,0.499,0.401,0.818,0.508
				c0.502,0.167,1.043,0.125,1.519-0.115c0.477-0.242,0.83-0.655,0.994-1.164c0.341-1.051-0.232-2.182-1.277-2.521
				c-1.042-0.341-2.168,0.229-2.512,1.265c-0.174,0.523-0.739,0.809-1.265,0.632c-0.524-0.175-0.807-0.741-0.632-1.265
				c0.692-2.073,2.951-3.21,5.027-2.535c2.094,0.681,3.244,2.942,2.562,5.04c-0.329,1.018-1.037,1.846-1.992,2.331
				C36.281,57.877,35.667,58.023,35.05,58.023z"  />
		</g>
		<g>
			<path d="M89.037,63h-6c-0.553,0-1-0.448-1-1s0.447-1,1-1h5.52l3.699-4.625c0.347-0.43,0.974-0.501,1.406-0.156
				c0.431,0.345,0.501,0.974,0.156,1.405l-4,5C89.628,62.862,89.341,63,89.037,63z" />
		</g>
		<g>
			<path d="M94.986,58.023c-0.619,0-1.233-0.146-1.801-0.434c-0.952-0.484-1.658-1.312-1.987-2.332
				c-0.333-1.007-0.252-2.091,0.232-3.046c0.484-0.956,1.312-1.664,2.332-1.993c1.555-0.507,3.286,0.001,4.312,1.26
				c0.349,0.428,0.284,1.058-0.144,1.407c-0.428,0.351-1.058,0.285-1.407-0.143c-0.508-0.623-1.369-0.874-2.145-0.621
				c-0.511,0.165-0.924,0.518-1.166,0.995c-0.241,0.476-0.281,1.015-0.114,1.52c0.167,0.516,0.519,0.929,0.992,1.17
				c0.476,0.241,1.016,0.281,1.525,0.114c0.497-0.164,0.897-0.495,1.127-0.934c0.254-0.489,0.858-0.677,1.35-0.423
				c0.489,0.256,0.678,0.86,0.422,1.35c-0.472,0.903-1.279,1.58-2.273,1.907C95.83,57.956,95.407,58.023,94.986,58.023z" fill="#FFFFFF"/>
		</g>
		<g>
			<path d="M49.049,36.028c-0.415,0-0.832-0.065-1.238-0.197c-1.522-0.507-2.59-1.851-2.727-3.424
				c-0.048-0.55,0.359-1.035,0.909-1.083c0.562-0.054,1.035,0.359,1.083,0.909c0.068,0.779,0.602,1.446,1.36,1.698
				c0.499,0.162,1.042,0.119,1.519-0.123c0.477-0.242,0.83-0.653,0.994-1.157c0.339-1.048-0.237-2.185-1.283-2.532
				c-0.711-0.229-1.511-0.034-2.03,0.499c-0.385,0.396-1.018,0.403-1.414,0.018c-0.396-0.385-0.403-1.019-0.018-1.414
				c1.044-1.07,2.647-1.463,4.082-1.004c2.094,0.694,3.241,2.958,2.566,5.049c-0.33,1.015-1.037,1.84-1.992,2.325
				C50.289,35.882,49.67,36.028,49.049,36.028z" fill="#FFFFFF"/>
		</g>
		<g>
			<path d="M49,43c-0.552,0-1-0.448-1-1v-7c0-0.552,0.448-1,1-1s1,0.448,1,1v7C50,42.552,49.552,43,49,43z" fill="#FFFFFF"/>
		</g>
		<g>
			<path d="M78.003,21.028c-0.41,0-0.828-0.063-1.239-0.196c-1.023-0.337-1.85-1.045-2.333-1.997
				c-0.483-0.954-0.565-2.04-0.23-3.058c0.678-2.086,2.941-3.234,5.036-2.559c0.714,0.242,1.326,0.653,1.785,1.194
				c0.358,0.421,0.307,1.052-0.114,1.41c-0.418,0.357-1.052,0.307-1.409-0.115c-0.226-0.265-0.533-0.47-0.89-0.591
				c-1.041-0.333-2.168,0.238-2.507,1.282c-0.169,0.513-0.129,1.055,0.113,1.531c0.241,0.476,0.656,0.832,1.168,1
				c0.996,0.32,2.099-0.205,2.461-1.17c0.194-0.517,0.767-0.78,1.287-0.586c0.517,0.193,0.779,0.77,0.586,1.287
				C81.124,20.044,79.62,21.028,78.003,21.028z" fill="#FFFFFF"/>
		</g>
		<g>
			<path d="M77.951,27c-0.553,0-1-0.448-1-1v-6c0-0.552,0.447-1,1-1s1,0.448,1,1v6C78.951,26.552,78.504,27,77.951,27z" fill="#FFFFFF"/>
		</g>
		<g>
			<path d="M99.12,19.03c-0.553,0-1-0.448-1-1c0-1.737-1.413-3.15-3.15-3.15c-0.553,0-1-0.448-1-1s0.447-1,1-1
				c1.737,0,3.15-1.413,3.15-3.15c0-0.552,0.447-1,1-1s1,0.448,1,1c0,1.246,0.736,2.379,1.876,2.886
				c0.505,0.225,0.731,0.816,0.507,1.32c-0.223,0.504-0.813,0.733-1.319,0.507c-0.839-0.373-1.544-0.954-2.064-1.666
				c-0.311,0.42-0.683,0.792-1.103,1.102c0.583,0.429,1.073,0.979,1.433,1.61c0.121,0.004,0.244,0.03,0.362,0.08
				c0.509,0.216,0.745,0.804,0.528,1.312c-0.146,0.342-0.22,0.728-0.22,1.147C100.12,18.582,99.673,19.03,99.12,19.03z" fill="#FFFFFF"/>
		</g>
		<g>
			<g>
				<path d="M42.701,18.101c-0.552,0-1-0.448-1-1v-5.187c0-0.552,0.448-1,1-1s1,0.448,1,1v5.187
					C43.701,17.653,43.253,18.101,42.701,18.101z" fill="#FFFFFF"/>
			</g>
			<g>
				<path d="M45.294,15.508h-5.187c-0.552,0-1-0.448-1-1s0.448-1,1-1h5.187c0.552,0,1,0.448,1,1S45.847,15.508,45.294,15.508z" fill="#FFFFFF"/>
			</g>
		</g>
		<g>
			<path d="M21.3,99.61c-0.374,0-0.732-0.21-0.904-0.571c-0.237-0.499-0.025-1.095,0.474-1.333C21.567,97.375,22,96.688,22,95.91
				c0-1.103-0.897-2-2-2s-2,0.897-2,2c0,0.599,0.264,1.159,0.725,1.537c0.427,0.351,0.488,0.981,0.138,1.408
				c-0.351,0.427-0.981,0.489-1.408,0.138C16.53,98.233,16,97.11,16,95.91c0-2.206,1.794-4,4-4s4,1.794,4,4
				c0,1.533-0.892,2.947-2.271,3.603C21.59,99.579,21.444,99.61,21.3,99.61z" fill="#FFFFFF"/>
		</g>
		<g>
			<g>
				<path d="M105.656,86.922c-0.837,0-1.519-0.682-1.519-1.519s0.682-1.519,1.519-1.519s1.519,0.682,1.519,1.519
					S106.493,86.922,105.656,86.922z" fill="#FFFFFF"/>
			</g>
		</g>
		<g>
			<path d="M98.188,63.889c-0.409,0-0.794-0.254-0.94-0.661c-0.188-0.52,0.082-1.093,0.602-1.28l6.991-2.522l-1.466-3.025
				c-0.132-0.273-0.133-0.591-0.003-0.865s0.378-0.474,0.673-0.544l6.307-1.493l-1.729-1.772c-0.234-0.241-0.333-0.583-0.261-0.912
				c0.071-0.328,0.303-0.599,0.617-0.72l5.024-1.937c0.513-0.196,1.094,0.058,1.292,0.573c0.199,0.516-0.058,1.094-0.573,1.293
				l-3.609,1.392l1.903,1.951c0.252,0.258,0.345,0.631,0.244,0.977c-0.101,0.346-0.379,0.611-0.729,0.694l-6.812,1.612l1.407,2.903
				c0.123,0.255,0.133,0.551,0.025,0.813c-0.106,0.263-0.32,0.468-0.587,0.564l-8.037,2.899
				C98.415,63.869,98.3,63.889,98.188,63.889z" fill="#FFFFFF"/>
		</g>
		<g>
			<path d="M31.362,63.889c-0.113,0-0.227-0.02-0.339-0.06l-8.037-2.899c-0.267-0.096-0.48-0.301-0.587-0.563
				c-0.107-0.263-0.097-0.558,0.026-0.813l1.406-2.903l-6.812-1.612c-0.351-0.083-0.629-0.348-0.73-0.694
				c-0.101-0.346-0.007-0.719,0.245-0.977l1.903-1.951l-3.61-1.392c-0.515-0.199-0.772-0.777-0.573-1.293
				c0.199-0.515,0.778-0.771,1.293-0.573l5.025,1.937c0.313,0.121,0.545,0.391,0.617,0.72s-0.026,0.671-0.261,0.912l-1.729,1.772
				l6.306,1.493c0.295,0.07,0.542,0.27,0.673,0.544c0.13,0.274,0.129,0.592-0.003,0.865l-1.465,3.025l6.992,2.522
				c0.52,0.188,0.789,0.761,0.602,1.28C32.156,63.635,31.772,63.889,31.362,63.889z" fill="#FFFFFF"/>
		</g>
		<g>
			<g>
				<path d="M91.001,32c-0.092,0-0.184-0.013-0.275-0.039c-0.531-0.152-0.839-0.705-0.688-1.236l2-7
					c0.152-0.532,0.711-0.839,1.236-0.687c0.531,0.152,0.839,0.705,0.688,1.236l-2,7C91.836,31.714,91.436,32,91.001,32z" fill="#FFFFFF"/>
			</g>
			<g>
				<path d="M101.502,44.494c-0.091,0-0.183-0.013-0.273-0.039l-7.003-1.986c-0.532-0.15-0.84-0.704-0.689-1.235
					c0.15-0.532,0.707-0.841,1.234-0.689l7.003,1.986c0.532,0.15,0.84,0.704,0.689,1.235
					C102.338,44.206,101.938,44.494,101.502,44.494z" fill="#FFFFFF"/>
			</g>
			<g>
				<path d="M100.351,32.13c-0.331,0-0.654-0.164-0.845-0.464c-0.297-0.466-0.158-1.084,0.308-1.38l9.65-6.13
					c0.465-0.296,1.084-0.158,1.38,0.308c0.297,0.466,0.158,1.084-0.308,1.38l-9.65,6.13C100.72,32.08,100.534,32.13,100.351,32.13z
					" fill="#FFFFFF" />
			</g>
			<g>
				<path d="M93.721,36.35c-0.331,0-0.654-0.164-0.845-0.463c-0.297-0.466-0.159-1.084,0.308-1.38l3.21-2.04
					c0.466-0.297,1.084-0.16,1.38,0.307c0.297,0.466,0.159,1.084-0.308,1.38l-3.21,2.04C94.09,36.3,93.904,36.35,93.721,36.35z" fill="#FFFFFF"/>
			</g>
		</g>
		<g>
			<g>
				<path d="M39.974,32c-0.435,0-0.835-0.287-0.961-0.726l-2-7c-0.152-0.531,0.156-1.084,0.687-1.236
					c0.531-0.152,1.085,0.156,1.236,0.687l2,7c0.152,0.531-0.156,1.084-0.687,1.236C40.158,31.988,40.065,32,39.974,32z" fill="#FFFFFF"/>
			</g>
			<g>
				<path d="M29.473,44.494c-0.436,0-0.837-0.288-0.961-0.728c-0.151-0.531,0.158-1.084,0.689-1.235l7.003-1.986
					c0.533-0.149,1.084,0.158,1.235,0.689c0.151,0.531-0.158,1.084-0.689,1.235l-7.003,1.986
					C29.655,44.481,29.563,44.494,29.473,44.494z" fill="#FFFFFF"/>
			</g>
			<g>
				<path d="M29.609,31.5c-0.184,0-0.37-0.05-0.536-0.156l-8.64-5.5c-0.466-0.297-0.603-0.915-0.307-1.381
					c0.296-0.465,0.914-0.604,1.381-0.307l8.64,5.5c0.466,0.297,0.603,0.915,0.307,1.381C30.263,31.336,29.939,31.5,29.609,31.5z" fill="#FFFFFF"/>
			</g>
			<g>
				<path d="M37.249,36.35c-0.184,0-0.369-0.05-0.536-0.156l-4.67-2.97c-0.466-0.296-0.604-0.915-0.307-1.38
					c0.296-0.466,0.914-0.604,1.38-0.307l4.67,2.97c0.466,0.296,0.604,0.915,0.307,1.38C37.903,36.187,37.58,36.35,37.249,36.35z" fill="#FFFFFF"/>
			</g>
		</g>
		<g>
			<path d="M99.42,17.495c-0.553,0-1-0.443-1-0.995v-0.01c0-0.552,0.447-1,1-1s1,0.448,1,1S99.973,17.495,99.42,17.495z" fill="#FFFFFF"/>
		</g>
	</g>
</g>
<g id="_x30_9">
</g>
<g id="_x31_0">
</g>
<g id="_x31_1">
</g>
<g id="_x31_2">
</g>
<g id="_x31_3">
</g>
<g id="_x31_4">
</g>
<g id="_x31_5">
</g>
<g id="_x31_6">
</g>
<g id="_x31_7">
</g>
<g id="_x31_8">
</g>
<g id="_x31_9">
</g>
<g id="_x32_0">
</g>
</svg>
