<?xml version="1.0" encoding="utf-8"?>
<!-- Generator: Adobe Illustrator 24.2.1, SVG Export Plug-In . SVG Version: 6.00 Build 0)  -->
<svg version="1.1" xmlns="http://www.w3.org/2000/svg" xmlns:xlink="http://www.w3.org/1999/xlink" x="0px" y="0px"
	 viewBox="0 0 128 128" style="enable-background:new 0 0 128 128;" xml:space="preserve">
<style type="text/css">
	.st0{fill:#7DEEFF;}
	.st1{fill:#4DC2CE;}
	.st2{fill:#4C4947;}
	.st3{fill:#75716D;}
	.st4{fill:#2B2927;}
	.st5{fill:#FF3968;}
	.st6{fill:#FF85AE;}
	.st7{fill:#CC194C;}
	.st8{fill:#00E77B;}
	.st9{fill:#EBFFFF;}
	.st10{fill:#004573;}
	.st11{fill:#3C8AB5;}
	.st12{fill:#012E47;}
	.st13{fill:#FFC745;}
	.st14{fill:#FF0097;}
	.st15{fill:#FFBD5B;}
	.st16{fill:#FF7B5B;}
	.st17{fill:#FF0077;}
	.st18{fill:#BC005E;}
	.st19{fill:#FFBF45;}
	.st20{fill:#FFF15C;}
	.st21{fill:#915524;}
	.st22{fill:#5B3314;}
	.st23{fill:#B95A00;}
	.st24{fill:#E58D45;}
	.st25{fill:#CE9D78;}
	.st26{fill:#FE4B9E;}
	.st27{fill:#FFF973;}
	.st28{fill:#006ED0;}
	.st29{fill:#43AFFF;}
	.st30{fill:#FF00A2;}
	.st31{fill:#03263A;}
	.st32{fill:#B22D59;}
	.st33{fill:#FFA9CC;}
	.st34{fill:#52B1DB;}
	.st35{fill:#FF00F4;}
	.st36{fill:#A4F3FF;}
	.st37{fill:#73BBD8;}
	.st38{fill:#00FF51;}
	.st39{fill:#06C460;}
	.st40{fill:#EE4C7B;}
	.st41{fill:#FFEB99;}
	.st42{fill:#45E7FF;}
	.st43{fill:#27B9C4;}
	.st44{fill:#B6FDFF;}
	.st45{fill:#E70045;}
	.st46{fill:#AA073D;}
	.st47{opacity:0.5;}
	.st48{fill:#D0FAFF;}
	.st49{fill:#ACDEE2;}
	.st50{fill:#FFFFFF;}
	.st51{fill:#FF9CBD;}
	.st52{fill:#AD003A;}
	.st53{fill:#CFE3E5;}
	.st54{fill:#173EFF;}
	.st55{fill:#4399C9;}
	.st56{fill:#092EB5;}
	.st57{fill:#40C9FF;}
	.st58{fill:#DCFFE2;}
	.st59{display:none;}
	.st60{display:inline;fill:none;stroke:#BBD7FF;stroke-width:2;stroke-linecap:round;stroke-linejoin:round;stroke-miterlimit:10;}
	.st61{fill:#C7FFD2;}
	.st62{fill:#2EE8FF;}
	.st63{fill:#025593;}
	.st64{fill:#2E7EFF;}
	.st65{fill:#FF6E9E;}
	.st66{fill:none;stroke:#000000;stroke-width:2;stroke-linecap:round;stroke-linejoin:round;stroke-miterlimit:10;}
	.st67{fill:#FF99E0;}
	
		.st68{display:none;fill:none;stroke:#28304F;stroke-width:2;stroke-linecap:round;stroke-linejoin:round;stroke-miterlimit:10;stroke-dasharray:7;}
	.st69{fill:#F8FFFF;}
	.st70{fill:#67C9D3;}
	.st71{fill:#88CFFF;}
	.st72{fill:#1334AA;}
	.st73{fill:#63B2BA;}
	.st74{fill:#033551;}
	.st75{fill:#8C224B;}
	.st76{fill:#FFC7BE;}
	.st77{fill:#E59991;}
	.st78{fill:#FFE6E3;}
	.st79{fill:#1578AF;}
	.st80{fill:#4EA2C6;}
	.st81{fill:#5E3312;}
	.st82{fill:#E2A86A;}
	.st83{fill:#4F2A0F;}
	.st84{fill:#301808;}
	.st85{fill:#965123;}
	.st86{fill:#823B00;}
	.st87{fill:#EA8B3D;}
	.st88{fill:#D39163;}
</style>
<g id="_x30_1">
</g>
<g id="_x30_2">
</g>
<g id="_x30_3">
</g>
<g id="_x30_4">
</g>
<g id="_x30_5">
</g>
<g id="_x30_6">
</g>
<g id="_x30_7">
</g>
<g id="_x30_8">
</g>
<g id="_x30_9">
</g>
<g id="_x31_0">
</g>
<g id="_x31_1">
</g>
<g id="_x31_2">
</g>
<g id="_x31_3">
</g>
<g id="_x31_4">
</g>
<g id="_x31_5">
</g>
<g id="_x31_6">
</g>
<g id="_x31_7">
</g>
<g id="_x31_8">
</g>
<g id="_x31_9">
	<g>
		<g>
			<g>
				<g>
					<path d="M98.4,30.5c-1.93,0-3.5-1.57-3.5-3.5v-3c0-1.93,1.57-3.5,3.5-3.5s3.5,1.57,3.5,3.5v3
						C101.9,28.93,100.33,30.5,98.4,30.5z M98.4,22.5c-0.827,0-1.5,0.673-1.5,1.5v3c0,0.827,0.673,1.5,1.5,1.5s1.5-0.673,1.5-1.5v-3
						C99.9,23.173,99.228,22.5,98.4,22.5z" fill="#FFFFFF"/>
				</g>
				<g>
					<path d="M108.977,42c-0.553,0-1-0.447-1-1v-5.586l-0.579,0.579c-0.391,0.391-1.023,0.391-1.414,0s-0.391-1.023,0-1.414
						l2.286-2.286c0.286-0.286,0.716-0.373,1.09-0.217c0.374,0.154,0.617,0.52,0.617,0.924v8C109.977,41.553,109.529,42,108.977,42z
						" fill="#FFFFFF"/>
				</g>
				<g>
					<path d="M98.4,49.5c-1.93,0-3.5-1.57-3.5-3.5v-3c0-1.93,1.57-3.5,3.5-3.5s3.5,1.57,3.5,3.5v3
						C101.9,47.93,100.33,49.5,98.4,49.5z M98.4,41.5c-0.827,0-1.5,0.673-1.5,1.5v3c0,0.827,0.673,1.5,1.5,1.5s1.5-0.673,1.5-1.5v-3
						C99.9,42.173,99.228,41.5,98.4,41.5z" fill="#FFFFFF"/>
				</g>
				<g>
					<path d="M108.977,61c-0.553,0-1-0.447-1-1v-5.586l-0.579,0.579c-0.391,0.391-1.023,0.391-1.414,0s-0.391-1.023,0-1.414
						l2.286-2.286c0.286-0.286,0.716-0.373,1.09-0.217c0.374,0.154,0.617,0.52,0.617,0.924v8C109.977,60.553,109.529,61,108.977,61z
						" fill="#FFFFFF"/>
				</g>
				<g>
					<path d="M98.4,68.5c-1.93,0-3.5-1.57-3.5-3.5v-3c0-1.93,1.57-3.5,3.5-3.5s3.5,1.57,3.5,3.5v3
						C101.9,66.93,100.33,68.5,98.4,68.5z M98.4,60.5c-0.827,0-1.5,0.673-1.5,1.5v3c0,0.827,0.673,1.5,1.5,1.5s1.5-0.673,1.5-1.5v-3
						C99.9,61.173,99.228,60.5,98.4,60.5z" fill="#FFFFFF"/>
				</g>
				<g>
					<path d="M108.977,80c-0.553,0-1-0.447-1-1v-5.586l-0.579,0.579c-0.391,0.391-1.023,0.391-1.414,0s-0.391-1.023,0-1.414
						l2.286-2.286c0.286-0.286,0.716-0.373,1.09-0.217c0.374,0.154,0.617,0.52,0.617,0.924v8C109.977,79.553,109.529,80,108.977,80z
						" fill="#FFFFFF"/>
				</g>
			</g>
			<g>
				<g>
					<path d="M72.4,24.5c-1.93,0-3.5-1.57-3.5-3.5v-3c0-1.93,1.57-3.5,3.5-3.5s3.5,1.57,3.5,3.5v3C75.9,22.93,74.33,24.5,72.4,24.5z
						 M72.4,16.5c-0.827,0-1.5,0.673-1.5,1.5v3c0,0.827,0.673,1.5,1.5,1.5s1.5-0.673,1.5-1.5v-3C73.9,17.173,73.228,16.5,72.4,16.5z
						" fill="#FFFFFF"/>
				</g>
				<g>
					<path d="M82.977,36c-0.553,0-1-0.447-1-1v-5.586l-0.579,0.579c-0.391,0.391-1.023,0.391-1.414,0s-0.391-1.023,0-1.414
						l2.286-2.286c0.286-0.287,0.716-0.373,1.09-0.217c0.374,0.154,0.617,0.52,0.617,0.924v8C83.977,35.553,83.529,36,82.977,36z" fill="#FFFFFF"/>
				</g>
				<g>
					<path d="M72.4,43.5c-1.93,0-3.5-1.57-3.5-3.5v-3c0-1.93,1.57-3.5,3.5-3.5s3.5,1.57,3.5,3.5v3C75.9,41.93,74.33,43.5,72.4,43.5z
						 M72.4,35.5c-0.827,0-1.5,0.673-1.5,1.5v3c0,0.827,0.673,1.5,1.5,1.5s1.5-0.673,1.5-1.5v-3C73.9,36.173,73.228,35.5,72.4,35.5z
						" fill="#FFFFFF"/>
				</g>
				<g>
					<path d="M82.977,55c-0.553,0-1-0.447-1-1v-5.586l-0.579,0.579c-0.391,0.391-1.023,0.391-1.414,0s-0.391-1.023,0-1.414
						l2.286-2.286c0.286-0.286,0.716-0.373,1.09-0.217c0.374,0.154,0.617,0.52,0.617,0.924v8C83.977,54.553,83.529,55,82.977,55z" fill="#FFFFFF"/>
				</g>
				<g>
					<path d="M72.4,62.5c-1.93,0-3.5-1.57-3.5-3.5v-3c0-1.93,1.57-3.5,3.5-3.5s3.5,1.57,3.5,3.5v3C75.9,60.93,74.33,62.5,72.4,62.5z
						 M72.4,54.5c-0.827,0-1.5,0.673-1.5,1.5v3c0,0.827,0.673,1.5,1.5,1.5s1.5-0.673,1.5-1.5v-3C73.9,55.173,73.228,54.5,72.4,54.5z
						" fill="#FFFFFF"/>
				</g>
				<g>
					<path d="M82.977,74c-0.553,0-1-0.447-1-1v-5.586l-0.579,0.579c-0.391,0.391-1.023,0.391-1.414,0s-0.391-1.023,0-1.414
						l2.286-2.286c0.286-0.286,0.716-0.373,1.09-0.217c0.374,0.154,0.617,0.52,0.617,0.924v8C83.977,73.553,83.529,74,82.977,74z" fill="#FFFFFF"/>
				</g>
			</g>
			<g>
				<g>
					<path d="M46.4,30.5c-1.93,0-3.5-1.57-3.5-3.5v-3c0-1.93,1.57-3.5,3.5-3.5s3.5,1.57,3.5,3.5v3C49.9,28.93,48.33,30.5,46.4,30.5z
						 M46.4,22.5c-0.827,0-1.5,0.673-1.5,1.5v3c0,0.827,0.673,1.5,1.5,1.5s1.5-0.673,1.5-1.5v-3C47.9,23.173,47.228,22.5,46.4,22.5z
						" fill="#FFFFFF"/>
				</g>
				<g>
					<path d="M56.977,42c-0.553,0-1-0.447-1-1v-5.586l-0.579,0.579c-0.391,0.391-1.023,0.391-1.414,0s-0.391-1.023,0-1.414
						l2.286-2.286c0.286-0.286,0.716-0.373,1.09-0.217c0.374,0.154,0.617,0.52,0.617,0.924v8C57.977,41.553,57.529,42,56.977,42z" fill="#FFFFFF"/>
				</g>
				<g>
					<path d="M46.4,49.5c-1.93,0-3.5-1.57-3.5-3.5v-3c0-1.93,1.57-3.5,3.5-3.5s3.5,1.57,3.5,3.5v3C49.9,47.93,48.33,49.5,46.4,49.5z
						 M46.4,41.5c-0.827,0-1.5,0.673-1.5,1.5v3c0,0.827,0.673,1.5,1.5,1.5s1.5-0.673,1.5-1.5v-3C47.9,42.173,47.228,41.5,46.4,41.5z
						" fill="#FFFFFF"/>
				</g>
				<g>
					<path d="M56.977,61c-0.553,0-1-0.447-1-1v-5.586l-0.579,0.579c-0.391,0.391-1.023,0.391-1.414,0s-0.391-1.023,0-1.414
						l2.286-2.286c0.286-0.286,0.716-0.373,1.09-0.217c0.374,0.154,0.617,0.52,0.617,0.924v8C57.977,60.553,57.529,61,56.977,61z" fill="#FFFFFF"/>
				</g>
				<g>
					<path d="M46.4,68.5c-1.93,0-3.5-1.57-3.5-3.5v-3c0-1.93,1.57-3.5,3.5-3.5s3.5,1.57,3.5,3.5v3C49.9,66.93,48.33,68.5,46.4,68.5z
						 M46.4,60.5c-0.827,0-1.5,0.673-1.5,1.5v3c0,0.827,0.673,1.5,1.5,1.5s1.5-0.673,1.5-1.5v-3C47.9,61.173,47.228,60.5,46.4,60.5z
						" fill="#FFFFFF"/>
				</g>
				<g>
					<path d="M56.977,80c-0.553,0-1-0.447-1-1v-5.586l-0.579,0.579c-0.391,0.391-1.023,0.391-1.414,0s-0.391-1.023,0-1.414
						l2.286-2.286c0.286-0.286,0.716-0.373,1.09-0.217c0.374,0.154,0.617,0.52,0.617,0.924v8C57.977,79.553,57.529,80,56.977,80z" fill="#FFFFFF"/>
				</g>
			</g>
			<g>
				<g>
					<path d="M20.4,24.5c-1.93,0-3.5-1.57-3.5-3.5v-3c0-1.93,1.57-3.5,3.5-3.5s3.5,1.57,3.5,3.5v3C23.9,22.93,22.33,24.5,20.4,24.5z
						 M20.4,16.5c-0.827,0-1.5,0.673-1.5,1.5v3c0,0.827,0.673,1.5,1.5,1.5s1.5-0.673,1.5-1.5v-3C21.9,17.173,21.228,16.5,20.4,16.5z
						" fill="#FFFFFF"/>
				</g>
				<g>
					<path d="M30.977,36c-0.553,0-1-0.447-1-1v-5.586l-0.579,0.579c-0.391,0.391-1.023,0.391-1.414,0s-0.391-1.023,0-1.414
						l2.286-2.286c0.286-0.287,0.717-0.373,1.09-0.217c0.374,0.154,0.617,0.52,0.617,0.924v8C31.977,35.553,31.529,36,30.977,36z" fill="#FFFFFF"/>
				</g>
				<g>
					<path d="M20.4,43.5c-1.93,0-3.5-1.57-3.5-3.5v-3c0-1.93,1.57-3.5,3.5-3.5s3.5,1.57,3.5,3.5v3C23.9,41.93,22.33,43.5,20.4,43.5z
						 M20.4,35.5c-0.827,0-1.5,0.673-1.5,1.5v3c0,0.827,0.673,1.5,1.5,1.5s1.5-0.673,1.5-1.5v-3C21.9,36.173,21.228,35.5,20.4,35.5z
						" fill="#FFFFFF"/>
				</g>
				<g>
					<path d="M30.977,55c-0.553,0-1-0.447-1-1v-5.586l-0.579,0.579c-0.391,0.391-1.023,0.391-1.414,0s-0.391-1.023,0-1.414
						l2.286-2.286c0.286-0.286,0.717-0.373,1.09-0.217c0.374,0.154,0.617,0.52,0.617,0.924v8C31.977,54.553,31.529,55,30.977,55z" fill="#FFFFFF"/>
				</g>
				<g>
					<path d="M20.4,62.5c-1.93,0-3.5-1.57-3.5-3.5v-3c0-1.93,1.57-3.5,3.5-3.5s3.5,1.57,3.5,3.5v3C23.9,60.93,22.33,62.5,20.4,62.5z
						 M20.4,54.5c-0.827,0-1.5,0.673-1.5,1.5v3c0,0.827,0.673,1.5,1.5,1.5s1.5-0.673,1.5-1.5v-3C21.9,55.173,21.228,54.5,20.4,54.5z
						" fill="#FFFFFF"/>
				</g>
				<g>
					<path d="M30.977,74c-0.553,0-1-0.447-1-1v-5.586l-0.579,0.579c-0.391,0.391-1.023,0.391-1.414,0s-0.391-1.023,0-1.414
						l2.286-2.286c0.286-0.286,0.717-0.373,1.09-0.217c0.374,0.154,0.617,0.52,0.617,0.924v8C31.977,73.553,31.529,74,30.977,74z" fill="#FFFFFF"/>
				</g>
			</g>
		</g>
		<g>
			<path class="st40" d="M92.731,77.317c-0.377-0.403-1.009-0.426-1.414-0.049c-0.403,0.377-0.425,1.01-0.049,1.414
				c0.019,0.021,0.309,0.335,0.779,0.874l0.923,30.463c-0.461,0.015-0.869,0.331-0.954,0.803c-0.098,0.544,0.263,1.062,0.806,1.161
				c0.105,0.019,1.212,0.211,2.746,0.211c2.124,0,5.067-0.368,7.311-2.076c1.831-1.395,2.88-3.423,3.117-6.028
				C107.024,92.775,93.315,77.943,92.731,77.317z" fill="#FFFFFF"/>
		</g>
		<g>
			<path d="M45.999,64c-0.454,0-0.864-0.311-0.973-0.771c-0.083-0.356-2.001-8.776,2.121-14.755c2.1-3.047,5.37-4.886,9.721-5.466
				c5.56-0.743,9.936,2.581,11.359,3.836c1.919-0.67,7.835-2.274,12.397,1.374c4.304,3.443,1.651,12.986,1.334,14.063
				c-0.155,0.53-0.715,0.837-1.24,0.677c-0.53-0.155-0.834-0.711-0.679-1.24c0.754-2.57,2.103-9.725-0.665-11.938
				c-4.462-3.57-10.918-0.89-10.982-0.861c-0.379,0.161-0.818,0.073-1.106-0.22c-0.044-0.044-4.481-4.466-10.154-3.709
				c-3.763,0.502-6.566,2.053-8.333,4.61c-3.62,5.241-1.844,13.092-1.825,13.17c0.125,0.538-0.208,1.076-0.745,1.202
				C46.151,63.991,46.074,64,45.999,64z" fill="#FFFFFF"/>
		</g>
		<g>
			<path class="st75" d="M91.93,64.31c-0.55,6.76-4.16,11.11-4.35,11.34C87.38,75.88,87.1,76,86.82,76c-0.23,0-0.46-0.08-0.65-0.24
				c-0.23-0.19-0.34-0.48-0.34-0.76h-44c0,0.28-0.11,0.57-0.34,0.76c-0.42,0.36-1.05,0.31-1.41-0.11c-0.2-0.23-3.86-4.65-4.36-11.51
				c-0.13-1.67-0.07-3.48,0.28-5.41c1.86-10.31,11.85-18.41,19.91-23.39c4.99-3.09,11.18-3.07,16.15,0.05
				c7.92,4.98,17.75,13.06,19.6,23.34C92.02,60.73,92.07,62.6,91.93,64.31z"/>
		</g>
		<g>
			<path class="st76" d="M78,53H49c-0.553,0-1,0.447-1,1v19.389c0,5.3,4.312,9.611,9.611,9.611h11.777
				c5.3,0,9.611-4.312,9.611-9.611V54C79,53.447,78.553,53,78,53z"/>
		</g>
		<g>
			<path class="st76" d="M47.072,62c-1.969,0-3.511,1.977-3.511,4.5c0,2.428,3.214,5.5,5.184,5.5C50,72,50,71.084,50,66
				C50,62.694,48.408,62,47.072,62z"/>
		</g>
		<g>
			<path class="st77" d="M79,54v19.39c0,5.3-4.31,9.61-9.61,9.61h-5c5.3,0,9.61-4.31,9.61-9.61V54c0-0.55-0.45-1-1-1h5
				C78.55,53,79,53.45,79,54z"/>
		</g>
		<g>
			<path class="st77" d="M49.76,71.26C49.59,71.84,49.28,72,48.75,72c-1.97,0-5.19-3.07-5.19-5.5c0-2.52,1.54-4.5,3.51-4.5
				c0.51,0,1.05,0.1,1.54,0.4c-1.22,0.69-2.05,2.25-2.05,4.1C46.56,68.2,48.14,70.22,49.76,71.26z"/>
		</g>
		<g>
			<path class="st78" d="M61.61,83h-4c-5.3,0-9.61-4.31-9.61-9.61V54c0-0.55,0.45-1,1-1h4c-0.55,0-1,0.45-1,1v19.39
				C52,78.69,56.31,83,61.61,83z"/>
		</g>
		<g>
			<path class="st40" d="M35.782,78.683c0.376-0.404,0.354-1.037-0.049-1.414c-0.405-0.376-1.036-0.354-1.414,0.049
				c-0.584,0.626-14.293,15.458-13.265,26.773c0.237,2.605,1.286,4.634,3.117,6.028c2.243,1.708,5.187,2.076,7.311,2.076
				c1.534,0,2.641-0.192,2.746-0.211c0.543-0.099,0.903-0.617,0.806-1.161c-0.085-0.472-0.49-0.786-0.953-0.802l0.923-30.464
				C35.473,79.017,35.763,78.703,35.782,78.683z"/>
		</g>
		<g>
			<path class="st51" d="M35.78,78.68c-0.02,0.02-0.31,0.34-0.78,0.88l-0.09,3.11c-4.12,5.47-9.51,14.17-8.86,21.42
				c0.24,2.61,1.29,4.63,3.12,6.03c1.46,1.11,3.21,1.66,4.84,1.9c-0.41,0.06-1.34,0.18-2.53,0.18c-2.12,0-5.06-0.37-7.31-2.08
				c-1.83-1.4-2.88-3.42-3.12-6.03c-1.02-11.31,12.69-26.15,13.27-26.77c0.38-0.41,1.01-0.43,1.41-0.05
				C36.14,77.65,36.16,78.28,35.78,78.68z"/>
		</g>
		<g>
			<path class="st21" d="M82.24,61.26c-0.13,0.5-0.23,0.86-0.28,1.02c-0.16,0.53-0.72,0.84-1.24,0.68
				c-0.41-0.12-6.19,2.77-13.7-4.87c-0.33-0.34-0.68-0.7-1.02-1.09c0,0-0.31,0.41-0.94,1.02c-2.15,2.1-8.02,6.52-18.08,4.95
				c-0.46-0.07-0.28,0.89-0.75,1C46.15,63.99,46.07,64,46,64c-0.46,0-0.87-0.31-0.97-0.77c-0.02-0.09-0.15-0.65-0.27-1.55
				c-0.39-2.77-0.73-8.69,2.39-13.21c2.1-3.04,5.37-4.88,9.72-5.46c5.56-0.74,9.93,2.58,11.36,3.83c1.92-0.67,7.83-2.27,12.39,1.38
				C84.28,51.14,82.92,58.46,82.24,61.26z"/>
		</g>
		<g>
			<path d="M69.39,83H57.61C52.312,83,48,78.688,48,73.39V63c0-0.553,0.447-1,1-1s1,0.447,1,1v10.39c0,4.196,3.414,7.61,7.61,7.61
				H69.39c4.196,0,7.61-3.414,7.61-7.61V63c0-0.553,0.447-1,1-1s1,0.447,1,1v10.39C79,78.688,74.688,83,69.39,83z"/>
		</g>
		<g>
			<path class="st79" d="M90.637,107H36.363c-1.854,0-3.363,1.509-3.363,3.363v0.273c0,1.854,1.509,3.363,3.363,3.363h54.273
				c1.854,0,3.363-1.509,3.363-3.363v-0.273C94,108.509,92.491,107,90.637,107z" fill="#FFFFFF"/>
		</g>
		<g>
			<path class="st10" d="M88.89,74H38.11C35.844,74,34,75.844,34,78.11V108c0,0.553,0.447,1,1,1h57c0.553,0,1-0.447,1-1V78.11
				C93,75.844,91.156,74,88.89,74z" fill="#FFFFFF" />
		</g>
		<g>
			<path class="st10" d="M94,110.36v0.28c0,1.85-1.51,3.36-3.36,3.36h-7c1.85,0,3.36-1.51,3.36-3.36v-0.28
				c0-1.85-1.51-3.36-3.36-3.36h7C92.49,107,94,108.51,94,110.36z" fill="#FFFFFF"/>
		</g>
		<g>
			<path class="st34" d="M37.397,105L37.397,105c-1.852,0-3.353-1.501-3.353-3.353V89.353c0-1.852,1.501-3.353,3.353-3.353h0
				c1.852,0,3.353,1.501,3.353,3.353v12.294C40.75,103.499,39.249,105,37.397,105z" fill="#FFFFFF"/>
		</g>
		<g>
			<path class="st80" d="M43.36,114h-7c-1.85,0-3.36-1.51-3.36-3.36v-0.28c0-1.85,1.51-3.36,3.36-3.36h7
				c-1.85,0-3.36,1.51-3.36,3.36v0.28C40,112.49,41.51,114,43.36,114z" fill="#FFFFFF"/>
		</g>
		<g>
			<path class="st32" d="M106,104.09c-0.24,2.61-1.29,4.63-3.12,6.03c-2.24,1.71-5.19,2.08-7.31,2.08c-1.2,0-2.13-0.12-2.53-0.18
				c1.63-0.24,3.39-0.79,4.84-1.9c1.83-1.4,2.88-3.42,3.12-6.03c0.65-7.25-4.74-15.96-8.86-21.43l-0.09-3.1
				c-0.47-0.54-0.76-0.86-0.78-0.88c-0.38-0.4-0.36-1.03,0.05-1.41c0.4-0.38,1.03-0.36,1.41,0.05
				C93.32,77.94,107.02,92.78,106,104.09z" fill="#FFFFFF" />
		</g>
		<g>
			<circle class="st34" cx="37.75" cy="80.5" r="3.5"/>
		</g>
		<g>
			<path class="st48" d="M64,81c-4.963,0-9,4.037-9,9c0,2.577,1.087,4.993,3,6.702V101c0,0.553,0.447,1,1,1h10c0.553,0,1-0.447,1-1
				v-4.298c1.913-1.709,3-4.125,3-6.702C73,85.037,68.963,81,64,81z"/>
		</g>
		<g>
			<path class="st74" d="M93,78.11V108c0,0.55-0.45,1-1,1H35c-0.55,0-1-0.45-1-1v-3h53c0.55,0,1-0.45,1-1V74.11
				c0-0.04,0-0.07-0.01-0.11h0.9C91.16,74,93,75.84,93,78.11z"/>
		</g>
		<g>
			<path class="st49" d="M73,90c0,2.58-1.09,4.99-3,6.7v4.3c0,0.55-0.45,1-1,1H59c-0.55,0-1-0.45-1-1v-2h7c0.55,0,1-0.45,1-1v-4.3
				c1.91-1.71,3-4.12,3-6.7c0-2.03-0.68-3.9-1.82-5.41C70.58,82.87,73,86.16,73,90z"/>
		</g>
		<g>
			<path d="M35,92.71c-0.553,0-1-0.447-1-1v-6.36c0-0.553,0.447-1,1-1s1,0.447,1,1v6.36C36,92.263,35.553,92.71,35,92.71z"/>
		</g>
		<g>
			<path d="M92,109H35c-0.553,0-1-0.447-1-1V96c0-0.553,0.447-1,1-1s1,0.447,1,1v11h55V78.11c0-1.164-0.946-2.11-2.11-2.11H38.11
				C36.946,76,36,76.946,36,78.11v3.199c0,0.553-0.447,1-1,1s-1-0.447-1-1V78.11c0-2.267,1.844-4.11,4.11-4.11H88.89
				c2.267,0,4.11,1.844,4.11,4.11V108C93,108.553,92.553,109,92,109z"/>
		</g>
		<g>
			<circle class="st50" cx="61" cy="86" r="3"/>
		</g>
		<g>
			<path d="M90.637,114H36.363c-1.854,0-3.363-1.509-3.363-3.363v-0.273c0-1.854,1.509-3.363,3.363-3.363h54.273
				c1.854,0,3.363,1.509,3.363,3.363v0.273C94,112.491,92.491,114,90.637,114z M36.363,109c-0.752,0-1.363,0.611-1.363,1.363v0.273
				c0,0.752,0.611,1.363,1.363,1.363h54.273c0.752,0,1.363-0.611,1.363-1.363v-0.273c0-0.752-0.611-1.363-1.363-1.363H36.363z"/>
		</g>
		<g>
			<path d="M69,102H59c-0.553,0-1-0.447-1-1v-4.298c-1.913-1.709-3-4.125-3-6.702c0-4.963,4.037-9,9-9s9,4.037,9,9
				c0,2.577-1.087,4.993-3,6.702V101C70,101.553,69.553,102,69,102z M60,100h8v-3.761c0-0.304,0.138-0.59,0.374-0.78
				C70.043,94.12,71,92.131,71,90c0-3.859-3.141-7-7-7s-7,3.141-7,7c0,2.131,0.957,4.12,2.626,5.459
				c0.236,0.19,0.374,0.477,0.374,0.78V100z"/>
		</g>
		<g>
			<path d="M62,102c-0.553,0-1-0.447-1-1v-3c0-0.553,0.447-1,1-1s1,0.447,1,1v3C63,101.553,62.553,102,62,102z" fill="#FFFFFF"/>
		</g>
		<g>
			<path d="M66,102c-0.553,0-1-0.447-1-1v-3c0-0.553,0.447-1,1-1s1,0.447,1,1v3C67,101.553,66.553,102,66,102z" fill="#FFFFFF"/>
		</g>
		<g>
			<path d="M67.5,94c-1.379,0-2.5-1.121-2.5-2.5s1.121-2.5,2.5-2.5s2.5,1.121,2.5,2.5S68.879,94,67.5,94z M67.5,91
				c-0.275,0-0.5,0.225-0.5,0.5s0.225,0.5,0.5,0.5s0.5-0.225,0.5-0.5S67.775,91,67.5,91z" fill="#FFFFFF"/>
		</g>
		<g>
			<path d="M61,94c-1.654,0-3-1.346-3-3s1.346-3,3-3s3,1.346,3,3S62.654,94,61,94z M61,90c-0.552,0-1,0.448-1,1s0.448,1,1,1
				s1-0.448,1-1S61.552,90,61,90z" fill="#FFFFFF"/>
		</g>
		<g>
			<path d="M83,86h-8c-0.553,0-1-0.447-1-1s0.447-1,1-1h8c0.553,0,1,0.447,1,1S83.553,86,83,86z" fill="#FFFFFF"/>
		</g>
		<g>
			<path d="M80,92h-5c-0.553,0-1-0.447-1-1s0.447-1,1-1h5c0.553,0,1,0.447,1,1S80.553,92,80,92z" fill="#FFFFFF"/>
		</g>
		<g>
			<path d="M77,97h-2c-0.553,0-1-0.447-1-1s0.447-1,1-1h2c0.553,0,1,0.447,1,1S77.553,97,77,97z" fill="#FFFFFF"/>
		</g>
		<g>
			<path class="st76" d="M80.489,62c-1.968,0-3.51,1.977-3.51,4.5c0,1.937,0.021,4.508,0.021,4.508C77.005,71.558,77.451,72,78,72
				c1.788,0,6-2.877,6-5.5C84,63.977,82.458,62,80.489,62z" fill="#FFFFFF"/>
		</g>
		<g>
			<path d="M53,97h-8c-0.553,0-1-0.447-1-1s0.447-1,1-1h8c0.553,0,1,0.447,1,1S53.553,97,53,97z" fill="#FFFFFF"/>
		</g>
		<g>
			<circle class="st10" cx="57" cy="67.5" r="4.5"/>
		</g>
		<g>
			<circle class="st10" cx="71" cy="67.5" r="4.5"/>
		</g>
		<g>
			<path d="M53,91h-5c-0.553,0-1-0.447-1-1s0.447-1,1-1h5c0.553,0,1,0.447,1,1S53.553,91,53,91z"/>
		</g>
		<g>
			<path class="st74" d="M75.5,67.5c0,2.48-2.02,4.5-4.5,4.5s-4.5-2.02-4.5-4.5c0-0.06,0-0.11,0.01-0.17C67.33,68.35,68.59,69,70,69
				c2.42,0,4.41-1.93,4.49-4.33C75.13,65.45,75.5,66.43,75.5,67.5z"/>
		</g>
		<g>
			<path class="st74" d="M61.5,67.5c0,2.48-2.02,4.5-4.5,4.5c-2.21,0-4.06-1.61-4.43-3.72C53.27,68.74,54.1,69,55,69
				c2.48,0,4.5-2.02,4.5-4.5c0-0.27-0.02-0.53-0.07-0.78C60.68,64.52,61.5,65.92,61.5,67.5z"/>
		</g>
		<g>
			<path class="st77" d="M84,66.5c0,2.62-4.21,5.5-6,5.5c-0.55,0-1-0.44-1-0.99c0,0,0-0.09,0-0.26c1.56-1.08,3.02-2.71,3.02-4.25
				c0-1.56-0.59-2.92-1.52-3.72c0.56-0.49,1.24-0.78,1.99-0.78C82.46,62,84,63.98,84,66.5z"/>
		</g>
		<g>
			<path class="st34" d="M57,63c-2.48,0-4.5,2.02-4.5,4.5c0,1.07,0.37,2.05,1.01,2.83c0.042-1.269,0.628-2.396,1.519-3.186
				C55.101,67.625,55.499,68,56,68c0.552,0,1-0.448,1-1c0-0.312-0.152-0.58-0.376-0.763C57.061,66.095,57.518,66,58,66
				c1.41,0,2.67,0.65,3.49,1.67c0.01-0.06,0.01-0.11,0.01-0.17C61.5,65.02,59.48,63,57,63z"/>
		</g>
		<g>
			<path class="st34" d="M75.43,66.72C75.06,64.61,73.21,63,71,63c-2.48,0-4.5,2.02-4.5,4.5c0,1.58,0.82,2.98,2.07,3.78
				c-0.05-0.25-0.07-0.51-0.07-0.78c0-1.338,0.599-2.528,1.53-3.353C70.103,67.626,70.5,68,71,68c0.552,0,1-0.448,1-1
				c0-0.312-0.151-0.579-0.375-0.762C72.061,66.096,72.518,66,73,66C73.9,66,74.73,66.26,75.43,66.72z"/>
		</g>
		<g>
			<path d="M53,86h-2c-0.553,0-1-0.447-1-1s0.447-1,1-1h2c0.553,0,1,0.447,1,1S53.553,86,53,86z"/>
		</g>
		<g>
			<path d="M78,72c-0.549,0-0.995-0.442-1-0.992c0,0-0.021-2.571-0.021-4.508c0-2.523,1.542-4.5,3.51-4.5
				C82.458,62,84,63.977,84,66.5C84,69.123,79.788,72,78,72z M80.489,64c-0.714,0-1.51,1.026-1.51,2.5
				c0,1.031,0.006,2.244,0.012,3.149C80.256,68.964,82,67.431,82,66.5C82,65.026,81.204,64,80.489,64z" />
		</g>
		<g>
			<path d="M48.745,72c-1.97,0-5.184-3.072-5.184-5.5c0-2.523,1.542-4.5,3.511-4.5C48.408,62,50,62.694,50,66
				C50,71.084,50,72,48.745,72z M47.072,64c-0.715,0-1.511,1.026-1.511,2.5c0,1.071,1.385,2.524,2.39,3.169
				C48,68.576,48,66.871,48,66C48,64,47.419,64,47.072,64z"  />
		</g>
		<g>
			<path d="M57,72c-2.481,0-4.5-2.019-4.5-4.5c0-1.21,0.472-2.34,1.329-3.183c0.393-0.388,1.027-0.383,1.414,0.012
				c0.388,0.394,0.382,1.027-0.012,1.414C54.76,66.207,54.5,66.831,54.5,67.5c0,1.379,1.121,2.5,2.5,2.5s2.5-1.121,2.5-2.5
				c0-1.312-1.025-2.406-2.335-2.492c-0.552-0.036-0.969-0.513-0.933-1.063c0.037-0.552,0.518-0.96,1.063-0.933
				c2.357,0.156,4.204,2.127,4.204,4.488C61.5,69.981,59.481,72,57,72z" />
		</g>
		<g>
			<path class="st81" d="M82.24,61.26c-4.21-1.63-9.42-2.85-15.22-3.17c-0.33-0.34-0.68-0.7-1.02-1.09c0,0-0.31,0.41-0.94,1.02
				C64.71,58,64.36,58,64,58c-7.5,0-14.2,1.57-19.24,3.68c-0.39-2.77-0.73-8.69,2.39-13.21c2.1-3.04,5.37-4.88,9.72-5.46
				c5.56-0.74,9.93,2.58,11.36,3.83c1.92-0.67,7.83-2.27,12.39,1.38C84.28,51.14,82.92,58.46,82.24,61.26z"  />
		</g>
		<g>
			<path d="M71,72c-2.481,0-4.5-2.019-4.5-4.5c0-1.151,0.456-2.283,1.251-3.105c0.384-0.396,1.017-0.406,1.414-0.023
				c0.396,0.384,0.407,1.017,0.023,1.414C68.751,66.237,68.5,66.862,68.5,67.5c0,1.379,1.121,2.5,2.5,2.5s2.5-1.121,2.5-2.5
				c0-1.225-0.906-2.282-2.107-2.461c-0.546-0.081-0.923-0.59-0.842-1.137c0.082-0.546,0.591-0.915,1.137-0.842
				c2.174,0.323,3.812,2.232,3.812,4.439C75.5,69.981,73.481,72,71,72z" />
		</g>
		<g>
			<path d="M67,69.657c-0.434,0-0.833-0.284-0.96-0.721c-0.265-0.911-1.085-1.523-2.04-1.523s-1.775,0.612-2.04,1.523
				c-0.154,0.529-0.704,0.837-1.239,0.681c-0.53-0.153-0.835-0.709-0.681-1.239c0.507-1.745,2.136-2.965,3.96-2.965
				s3.453,1.22,3.96,2.965c0.154,0.53-0.15,1.086-0.681,1.239C67.186,69.645,67.092,69.657,67,69.657z"  />
		</g>
		<g>
			<path d="M75,68c-0.256,0-0.512-0.098-0.707-0.293c-0.391-0.391-0.391-1.023,0-1.414l3-3c0.391-0.391,1.023-0.391,1.414,0
				s0.391,1.023,0,1.414l-3,3C75.512,67.902,75.256,68,75,68z" />
		</g>
		<g>
			<path d="M52.999,68c-0.209,0-0.419-0.065-0.599-0.2l-4-3c-0.442-0.331-0.532-0.958-0.2-1.399c0.331-0.442,0.958-0.531,1.399-0.2
				l4,3c0.442,0.331,0.532,0.958,0.2,1.399C53.604,67.862,53.304,68,52.999,68z" />
		</g>
		<g>
			<path d="M48,64c-0.547,0-0.993-0.439-1-0.987c-0.007-0.553,0.436-1.006,0.987-1.013c0.061-0.001,6.149-0.1,11.696-1.948
				c5.201-1.734,5.314-5.882,5.316-6.058c0.006-0.488,0.363-0.902,0.846-0.979c0.474-0.072,0.948,0.206,1.103,0.667
				c0.015,0.044,1.512,4.422,4.606,6.485C74.265,61.975,79.943,62,80,62c0.553,0,1,0.448,1,1c0,0.553-0.448,1-1,1
				c-0.258,0-6.34-0.024-9.555-2.168c-1.937-1.291-3.311-3.252-4.188-4.848c-0.802,1.738-2.471,3.808-5.94,4.964
				C54.465,63.899,48.273,63.997,48.013,64C48.008,64,48.004,64,48,64z" />
		</g>
		<g>
			<path d="M45.999,64c-0.454,0-0.864-0.311-0.973-0.771c-0.083-0.356-2.001-8.776,2.121-14.755c2.1-3.047,5.37-4.886,9.721-5.466
				c5.56-0.743,9.936,2.581,11.359,3.836c1.919-0.67,7.835-2.274,12.397,1.374c4.304,3.443,1.651,12.986,1.334,14.063
				c-0.155,0.53-0.715,0.837-1.24,0.677c-0.53-0.155-0.834-0.711-0.679-1.24c0.754-2.57,2.103-9.725-0.665-11.938
				c-4.462-3.57-10.918-0.89-10.982-0.861c-0.379,0.161-0.818,0.073-1.106-0.22c-0.044-0.044-4.481-4.466-10.154-3.709
				c-3.763,0.502-6.566,2.053-8.333,4.61c-3.62,5.241-1.844,13.092-1.825,13.17c0.125,0.538-0.208,1.076-0.745,1.202
				C46.151,63.991,46.074,64,45.999,64z" />
		</g>
		<g>
			<path d="M95.569,112.195c-1.535,0-2.642-0.192-2.747-0.211c-0.543-0.099-0.903-0.618-0.806-1.161s0.617-0.905,1.16-0.808
				c0.052,0.009,5.341,0.915,8.496-1.491c1.363-1.041,2.147-2.593,2.331-4.615c0.084-0.961,0.053-1.956-0.093-2.955
				c-0.08-0.547,0.299-1.055,0.845-1.134c0.547-0.09,1.055,0.299,1.134,0.845c0.168,1.152,0.204,2.304,0.106,3.422
				c-0.237,2.61-1.286,4.639-3.117,6.033C100.636,111.827,97.693,112.195,95.569,112.195z" />
		</g>
		<g>
			<path d="M103.66,97c-0.407,0-0.789-0.25-0.938-0.654c-3.249-8.81-11.371-17.576-11.453-17.663
				c-0.376-0.404-0.354-1.037,0.049-1.414c0.405-0.377,1.038-0.354,1.413,0.049c0.345,0.369,8.477,9.143,11.868,18.337
				c0.19,0.518-0.074,1.093-0.593,1.284C103.893,96.98,103.775,97,103.66,97z" fill="#FFFFFF"/>
		</g>
		<g>
			<path d="M100.999,101c-0.219,0-0.439-0.071-0.624-0.219c-4.394-3.514-7.792-1.952-7.936-1.883
				c-0.491,0.234-1.092,0.034-1.334-0.461c-0.241-0.493-0.044-1.086,0.447-1.332c0.188-0.093,4.635-2.236,10.072,2.113
				c0.431,0.346,0.501,0.975,0.156,1.406C101.583,100.871,101.293,101,100.999,101z" fill="#FFFFFF" />
		</g>
		<g>
			<path d="M31.48,112.195c-2.124,0-5.066-0.368-7.31-2.075c-1.831-1.395-2.88-3.423-3.117-6.029
				c-0.415-4.559,1.486-10.206,5.651-16.786c0.295-0.467,0.912-0.607,1.38-0.31c0.467,0.295,0.605,0.913,0.31,1.38
				c-3.868,6.11-5.718,11.482-5.349,15.534c0.187,2.054,0.951,3.564,2.337,4.619c3.172,2.415,8.438,1.5,8.489,1.487
				c0.541-0.1,1.063,0.264,1.162,0.807c0.098,0.544-0.263,1.063-0.807,1.162C34.122,112.003,33.015,112.195,31.48,112.195z" fill="#FFFFFF"/>
		</g>
		<g>
			<path d="M29.939,85.32c-0.203,0-0.408-0.062-0.585-0.19c-0.448-0.323-0.548-0.948-0.224-1.396
				c2.734-3.778,5.089-6.311,5.188-6.417c0.378-0.403,1.009-0.425,1.414-0.049c0.403,0.377,0.425,1.01,0.049,1.414
				c-0.023,0.024-2.374,2.554-5.031,6.224C30.555,85.177,30.249,85.32,29.939,85.32z" fill="#FFFFFF"/>
		</g>
		<g>
			<path d="M26.052,101c-0.294,0-0.584-0.128-0.782-0.375c-0.345-0.432-0.274-1.061,0.156-1.406
				c5.437-4.349,9.885-2.207,10.072-2.113c0.494,0.247,0.694,0.848,0.447,1.342c-0.246,0.491-0.84,0.692-1.335,0.45
				c-0.157-0.073-3.552-1.623-7.935,1.884C26.491,100.929,26.271,101,26.052,101z" fill="#FFFFFF"/>
		</g>
		<g>
			<circle class="st15" cx="117.5" cy="81.5" r="3.5"/>
		</g>
		<g>
			<circle class="st38" cx="100.5" cy="66.5" r="3.5"/>
		</g>
		<g>
			<circle class="st40" cx="114.5" cy="108.5" r="3.5"/>
		</g>
		<g>
			<circle class="st10" cx="9.664" cy="81.5" r="3.5"/>
		</g>
		<g>
			<circle class="st40" cx="26.664" cy="66.5" r="3.5"/>
		</g>
		<g>
			<circle class="st38" cx="12.664" cy="108.5" r="3.5"/>
		</g>
		<g>
			<path class="st40" d="M91.93,64.31l-0.38-0.45c-0.36,0.26-0.86,0.24-1.21-0.06c-0.69-0.59-1.5-1.18-2.42-1.76
				C82.76,58.82,74.11,56,64,56c-11.12,0-20.49,3.45-25.3,6.99c-0.5,0.36-0.95,0.73-1.34,1.09c-0.2,0.17-0.44,0.26-0.68,0.26
				c-0.27,0-0.53-0.11-0.73-0.31l-0.23,0.11c-0.13-1.67-0.07-3.48,0.28-5.41c1.86-10.31,11.85-18.41,19.91-23.39
				c4.99-3.09,11.18-3.07,16.15,0.05c7.92,4.98,17.75,13.06,19.6,23.34C92.02,60.73,92.07,62.6,91.93,64.31z" fill="#FFFFFF"/>
		</g>
		<g>
			<path d="M106,91h-5c-0.553,0-1-0.447-1-1s0.447-1,1-1h4.307l2.757-7.352C108.21,81.259,108.583,81,109,81h6c0.553,0,1,0.447,1,1
				s-0.447,1-1,1h-5.307l-2.757,7.352C106.79,90.741,106.417,91,106,91z" fill="#FFFFFF" />
		</g>
		<g>
			<path d="M117.5,85c-1.93,0-3.5-1.57-3.5-3.5s1.57-3.5,3.5-3.5s3.5,1.57,3.5,3.5S119.43,85,117.5,85z M117.5,80
				c-0.827,0-1.5,0.673-1.5,1.5s0.673,1.5,1.5,1.5s1.5-0.673,1.5-1.5S118.327,80,117.5,80z" fill="#FFFFFF"/>
		</g>
		<g>
			<path d="M100.5,70c-1.93,0-3.5-1.57-3.5-3.5s1.57-3.5,3.5-3.5s3.5,1.57,3.5,3.5S102.43,70,100.5,70z M100.5,65
				c-0.827,0-1.5,0.673-1.5,1.5s0.673,1.5,1.5,1.5s1.5-0.673,1.5-1.5S101.327,65,100.5,65z" fill="#FFFFFF" />
		</g>
		<g>
			<path d="M114.5,112c-1.93,0-3.5-1.57-3.5-3.5s1.57-3.5,3.5-3.5s3.5,1.57,3.5,3.5S116.43,112,114.5,112z M114.5,107
				c-0.827,0-1.5,0.673-1.5,1.5s0.673,1.5,1.5,1.5s1.5-0.673,1.5-1.5S115.327,107,114.5,107z" fill="#FFFFFF" />
		</g>
		<g>
			<path d="M113.001,107c-0.305,0-0.604-0.138-0.801-0.4l-2.7-3.6H105c-0.553,0-1-0.447-1-1s0.447-1,1-1h5
				c0.314,0,0.611,0.148,0.8,0.4l3,4c0.332,0.441,0.242,1.068-0.2,1.399C113.42,106.935,113.21,107,113.001,107z" fill="#FFFFFF"/>
		</g>
		<g>
			<path d="M98,68h-7c-0.553,0-1-0.447-1-1s0.447-1,1-1h7c0.553,0,1,0.447,1,1S98.553,68,98,68z" fill="#FFFFFF"/>
		</g>
		<g>
			<path d="M26.164,91h-5c-0.417,0-0.79-0.259-0.937-0.648L17.471,83h-5.307c-0.553,0-1-0.447-1-1s0.447-1,1-1h6
				c0.417,0,0.79,0.259,0.937,0.648L21.857,89h4.307c0.553,0,1,0.447,1,1S26.717,91,26.164,91z" fill="#FFFFFF"/>
		</g>
		<g>
			<path class="st32" d="M91.93,64.31l-0.38-0.45c-0.36,0.26-0.86,0.24-1.21-0.06c-0.69-0.59-1.5-1.18-2.42-1.76
				c-0.91-0.57-1.92-1.12-3.03-1.64c-0.05-0.55-0.13-1.1-0.23-1.67c-1.85-10.28-11.68-18.36-19.6-23.34
				c-1.46-0.91-3.02-1.56-4.62-1.93c3.91-0.94,8.07-0.3,11.62,1.93c7.92,4.98,17.75,13.06,19.6,23.34
				C92.02,60.73,92.07,62.6,91.93,64.31z" fill="#FFFFFF"/>
		</g>
		<g>
			<path class="st51" d="M61.91,35.34c1.58-0.98,3.28-1.65,5.03-2c-3.73-0.76-7.65-0.09-11.03,2C47.85,40.32,37.86,48.42,36,58.73
				c-0.35,1.93-0.41,3.74-0.28,5.41l0.23-0.11c0.2,0.2,0.46,0.31,0.73,0.31c0.24,0,0.48-0.09,0.68-0.26
				c0.39-0.36,0.84-0.73,1.34-1.09c0.86-0.63,1.87-1.27,3.01-1.87c0.05-0.77,0.14-1.57,0.29-2.39
				c0.703-3.898,2.57-7.478,5.054-10.695C47.313,49.712,48.75,51,50.5,51c1.933,0,3.5-1.567,3.5-3.5
				c0-1.883-1.491-3.408-3.355-3.485C54.168,40.535,58.236,37.61,61.91,35.34z" fill="#FFFFFF"/>
		</g>
		<g>
			<path d="M9.664,85c-1.93,0-3.5-1.57-3.5-3.5s1.57-3.5,3.5-3.5s3.5,1.57,3.5,3.5S11.594,85,9.664,85z M9.664,80
				c-0.827,0-1.5,0.673-1.5,1.5s0.673,1.5,1.5,1.5s1.5-0.673,1.5-1.5S10.491,80,9.664,80z" fill="#FFFFFF"/>
		</g>
		<g>
			<path d="M26.664,70c-1.93,0-3.5-1.57-3.5-3.5s1.57-3.5,3.5-3.5s3.5,1.57,3.5,3.5S28.594,70,26.664,70z M26.664,65
				c-0.827,0-1.5,0.673-1.5,1.5s0.673,1.5,1.5,1.5s1.5-0.673,1.5-1.5S27.491,65,26.664,65z" fill="#FFFFFF"/>
		</g>
		<g>
			<path d="M12.664,112c-1.93,0-3.5-1.57-3.5-3.5s1.57-3.5,3.5-3.5s3.5,1.57,3.5,3.5S14.594,112,12.664,112z M12.664,107
				c-0.827,0-1.5,0.673-1.5,1.5s0.673,1.5,1.5,1.5s1.5-0.673,1.5-1.5S13.491,107,12.664,107z" fill="#FFFFFF"/>
		</g>
		<g>
			<path d="M14.163,107c-0.209,0-0.419-0.065-0.599-0.2c-0.442-0.331-0.532-0.958-0.2-1.399l3-4c0.188-0.252,0.485-0.4,0.8-0.4H22
				c0.553,0,1,0.447,1,1s-0.447,1-1,1h-4.336l-2.7,3.6C14.768,106.862,14.468,107,14.163,107z" fill="#FFFFFF"/>
		</g>
		<g>
			<path d="M36.164,68h-7c-0.553,0-1-0.447-1-1s0.447-1,1-1h7c0.553,0,1,0.447,1,1S36.717,68,36.164,68z" fill="#FFFFFF"/>
		</g>
		<g>
			<path d="M106,114H23c-0.553,0-1-0.447-1-1s0.447-1,1-1h83c0.553,0,1,0.447,1,1S106.553,114,106,114z" fill="#FFFFFF"/>
		</g>
		<g>
			<path d="M40.849,76c-0.283,0-0.564-0.12-0.762-0.354c-0.24-0.283-5.854-7.043-4.081-16.913c0.488-2.753,1.618-5.542,3.359-8.288
				c0.297-0.467,0.915-0.604,1.38-0.31c0.467,0.296,0.605,0.914,0.31,1.38c-1.601,2.525-2.637,5.071-3.08,7.569
				c-1.602,8.916,3.586,15.207,3.639,15.27c0.355,0.423,0.303,1.053-0.119,1.409C41.307,75.922,41.077,76,40.849,76z" fill="#FFFFFF"/>
		</g>
		<g>
			<path d="M86.811,76c-0.229,0-0.458-0.078-0.646-0.237c-0.421-0.356-0.474-0.987-0.118-1.408c0.053-0.062,5.25-6.354,3.64-15.267
				c-1.719-9.563-11.11-17.243-18.688-22.001c-4.313-2.714-9.694-2.733-14.043-0.046c-5.031,3.118-9.355,6.598-12.505,10.062
				c-0.371,0.409-1.005,0.438-1.413,0.067c-0.408-0.372-0.438-1.004-0.067-1.413c3.319-3.651,7.671-7.155,12.934-10.416
				c5.001-3.093,11.193-3.071,16.159,0.053c7.918,4.973,17.744,13.058,19.592,23.34c1.783,9.87-3.842,16.631-4.083,16.914
				C87.374,75.88,87.093,76,86.811,76z" fill="#FFFFFF"/>
		</g>
		<g>
			<path d="M90.99,64.04c-0.23,0-0.463-0.079-0.651-0.241C85.814,59.917,75.915,56,64,56c-1.411,0-2.776,0.053-4.059,0.157
				c-0.542,0.038-1.033-0.366-1.078-0.916c-0.044-0.551,0.365-1.033,0.916-1.078C61.115,54.055,62.535,54,64,54
				c12.427,0,22.837,4.159,27.642,8.281c0.419,0.359,0.467,0.991,0.107,1.41C91.552,63.922,91.271,64.04,90.99,64.04z" fill="#FFFFFF"/>
		</g>
		<g>
			<path d="M36.68,64.34c-0.27,0-0.539-0.108-0.736-0.323c-0.374-0.407-0.347-1.039,0.06-1.413
				c4.155-3.817,11.926-6.907,20.28-8.063c0.549-0.083,1.051,0.307,1.127,0.854s-0.306,1.052-0.854,1.127
				c-7.972,1.104-15.329,3.999-19.2,7.556C37.164,64.253,36.922,64.34,36.68,64.34z" fill="#FFFFFF"/>
		</g>
	</g>
</g>
<g id="_x32_0">
</g>
</svg>
