<svg xmlns="http://www.w3.org/2000/svg" viewBox="0 0 64 64"><defs><style>.cls-1{isolation:isolate;}.cls-2{fill:#f2f2f2;}.cls-3{fill:#38aecf;}.cls-4{fill:#e94554;}.cls-5{fill:#b2d834;}.cls-6{fill:#fcce17;}.cls-7{fill:#ccc;}.cls-10,.cls-8,.cls-9{fill:none;}.cls-10,.cls-9{stroke:#000;stroke-width:2px;}.cls-9{stroke-linecap:round;stroke-linejoin:round;}.cls-10{stroke-miterlimit:10;}.cls-11{opacity:0.25;mix-blend-mode:multiply;}.cls-12{mix-blend-mode:soft-light;}</style></defs><title>Icon Color</title><g class="cls-1"><g id="Layer_1" data-name="Layer 1"><g id="Vector"><path class="cls-2" d="M11.32,25.24H51.71a0,0,0,0,1,0,0V51.1A3.88,3.88,0,0,1,47.83,55H15.2a3.88,3.88,0,0,1-3.88-3.88V25.24A0,0,0,0,1,11.32,25.24Z"/><path class="cls-3" d="M14.86,15.93H48.18a3.54,3.54,0,0,1,3.54,3.54v5.77a0,0,0,0,1,0,0H11.32a0,0,0,0,1,0,0V19.46A3.54,3.54,0,0,1,14.86,15.93Z"/><circle class="cls-4" cx="16.25" cy="20.58" r="1.99"/><circle class="cls-5" cx="23.88" cy="20.58" r="1.99"/><circle class="cls-6" cx="31.52" cy="20.58" r="1.99"/><path class="cls-7" d="M15.45,30.28H27.77a0,0,0,0,1,0,0V50.86a0,0,0,0,1,0,0H18.29A2.84,2.84,0,0,1,15.45,48V30.28A0,0,0,0,1,15.45,30.28Z"/><rect class="cls-7" x="31.05" y="30.28" width="6.16" height="5.9"/><path class="cls-7" d="M31,39.12H47.43a0,0,0,0,1,0,0v8.27A3.47,3.47,0,0,1,44,50.86H31a0,0,0,0,1,0,0V39.12A0,0,0,0,1,31,39.12Z"/><rect class="cls-7" x="40.53" y="30.28" width="6.9" height="5.9"/><circle class="cls-5" cx="46.95" cy="51.07" r="7.18"/><polyline class="cls-8" points="43.41 51.07 46.38 54.05 50.54 49.15"/></g><g id="Line"><path class="cls-9" d="M51.71,25.23V45.7a7,7,0,0,0-4.29-1.78,3.59,3.59,0,0,0-.47,0,7.16,7.16,0,0,0-7.17,7,1.62,1.62,0,0,0,0,.22A7.12,7.12,0,0,0,40.92,55H15.2a3.87,3.87,0,0,1-3.88-3.88V25.23Z"/><path class="cls-9" d="M14.86,15.93H48.18a3.54,3.54,0,0,1,3.54,3.54v5.77a0,0,0,0,1,0,0H11.32a0,0,0,0,1,0,0V19.46A3.54,3.54,0,0,1,14.86,15.93Z"/><circle class="cls-9" cx="16.25" cy="20.58" r="1.99"/><circle class="cls-9" cx="23.88" cy="20.58" r="1.99"/><circle class="cls-9" cx="31.52" cy="20.58" r="1.99"/><path class="cls-9" d="M15.45,30.28H27.77a0,0,0,0,1,0,0V50.86a0,0,0,0,1,0,0H18.29A2.84,2.84,0,0,1,15.45,48V30.28A0,0,0,0,1,15.45,30.28Z"/><rect class="cls-9" x="31.05" y="30.28" width="6.16" height="5.9"/><path class="cls-9" d="M47.42,39.12v4.8a3.59,3.59,0,0,0-.47,0,7.16,7.16,0,0,0-7.17,7H31V39.12Z"/><rect class="cls-9" x="40.53" y="30.28" width="6.9" height="5.9"/><path class="cls-10" d="M54.13,51.07a7.18,7.18,0,1,1-14.36,0,1.62,1.62,0,0,1,0-.22,7.16,7.16,0,0,1,7.17-7,3.59,3.59,0,0,1,.47,0,7,7,0,0,1,4.29,1.78A7.16,7.16,0,0,1,54.13,51.07Z"/><polyline class="cls-9" points="43.41 51.07 46.38 54.05 50.54 49.15"/></g><g id="Shadow" class="cls-11"><path d="M48,19.46V45.27A8.18,8.18,0,0,1,44.6,58.89a8.14,8.14,0,0,0,10.53-7.82,8.15,8.15,0,0,0-2.42-5.8V19.46a4.53,4.53,0,0,0-4.53-4.53H43.42A4.54,4.54,0,0,1,48,19.46Z"/></g><g id="Highligth" class="cls-12"><path d="M15.2,56H22a4.89,4.89,0,0,1-4.88-4.88V19.46a4.54,4.54,0,0,1,4.54-4.53H14.86a4.54,4.54,0,0,0-4.54,4.53V51.1A4.89,4.89,0,0,0,15.2,56Z"/></g></g></g></svg>